<svg version="1.1" xmlns="http://www.w3.org/2000/svg" xmlns:xlink="http://www.w3.org/1999/xlink" x="0px"
	 y="0px" viewBox="0.5 -27.5 72 72" enable-background="new 0.5 -27.5 72 72" xml:space="preserve">
	<path fill="#FEFEFE" d="M0.5,44.51c0-24,0-48,0-72.019c23.982,0,47.982,0,72,0c0,24,0,48.019,0,72.019
		C48.5,44.51,24.5,44.51,0.5,44.51z"/>
	<path fill="#BF0101" d="M15.878,13.004c-0.494-0.146-1.007-0.146-1.501-0.201c-1.685-0.202-3.314,0-4.906,0.586
		c-1.373,0.512-2.398,1.482-3.186,2.689c-0.311,0.459-0.659,0.916-0.916,1.428c-0.11-0.109-0.073-0.236-0.091-0.348
		c-0.128-1.445-0.019-2.873,0.293-4.283c1.043-4.741,3.716-8.256,7.964-10.581c0.201-0.11,0.42-0.201,0.641-0.311
		c0.329-0.146,0.365-0.22,0.329-0.604c-0.11-1.117-0.128-2.252-0.019-3.369c0.165-1.813,0.641-3.533,1.446-5.163
		c2.124-4.375,5.565-7.158,10.252-8.402c1.556-0.421,3.148-0.586,4.76-0.421c0.494,0.055,0.915-0.055,1.337-0.348
		c1.903-1.336,4.027-2.16,6.297-2.526c2.416-0.384,4.814-0.22,7.158,0.531c0.201,0.073,0.421,0.128,0.585,0.238
		c0.019,0.091,0.073,0.146,0.129,0.22c0.896,1.171,1.024,2.49,0.787,3.899c-0.184,1.025-0.55,1.996-0.989,2.929
		c-0.128,0.275-0.256,0.531-0.365,0.806c-0.146,0.091-0.257-0.019-0.366-0.073c-1.099-0.677-2.252-1.227-3.442-1.684
		c-0.823-0.312-1.647-0.659-2.545-0.788c-0.237-0.037-0.42-0.183-0.604-0.311c-1.208-0.842-2.508-1.501-3.918-1.959
		c-0.036-0.018-0.072-0.037-0.128,0c0.696,0.787,0.897,1.776,0.915,2.783c0,0.916-0.256,1.776-0.53,2.636
		c-0.257,0.732-0.567,1.428-0.934,2.105c-0.036,0.073-0.073,0.165-0.146,0.201c-0.183,0.037-0.312-0.055-0.439-0.128
		c-0.787-0.385-1.574-0.788-2.361-1.172c-0.22-0.128-0.421-0.165-0.678-0.128c-0.348,0.055-0.695,0.055-1.044,0
		c-0.402-0.055-0.805,0-1.189,0.091c-0.513,0.128-0.988,0.055-1.446-0.183c-0.458-0.238-0.934-0.476-1.409-0.714
		c-0.184-0.092-0.385-0.165-0.586-0.073c-0.806,0.384-1.647,0.714-2.361,1.281c-0.201,0.22-0.146,0.495-0.146,0.769
		c0,0.128,0,0.275,0,0.421c0,0.11-0.019,0.22,0,0.33c0.018,0.567-0.275,0.934-0.77,1.153c-0.256,0.11-0.512,0.202-0.75,0.33
		c-0.184,0.11-0.348,0.256-0.366,0.494c-0.019,0.33-0.073,0.641-0.073,0.97c-0.019,0.458,0.164,0.824,0.567,1.08
		c0.312,0.202,0.659,0.385,0.989,0.568c0.273,0.146,0.42,0.33,0.348,0.659c-0.092,0.513,0.091,0.916,0.512,1.19
		c0.165,0.11,0.312,0.238,0.385,0.421c0.037,0.128,0.037,0.256,0.037,0.384c0,0.202,0,0.421-0.019,0.623
		c-0.019,0.348,0.146,0.586,0.458,0.695c0.146,0.055,0.273,0.11,0.402,0.184c0.146,0.165,0.457,0.128,0.494,0.421
		C24.5,2.642,24.152,2.77,23.842,2.953c-1.41,0.769-2.875,1.41-4.486,1.647c-0.951,0.146-1.885,0.146-2.818,0.019
		c-0.641-0.073-1.099-0.439-1.574-0.788c-0.221-0.274-0.201-0.604-0.275-0.934c-0.348,1.41-0.421,2.838-0.201,4.266
		c0.019,0.604,0.22,1.189,0.348,1.775c0.238,1.153,0.641,2.27,1.08,3.369c0.074,0.219,0.221,0.42,0.129,0.676
		C15.988,13.021,15.933,13.039,15.878,13.004z"/>
	<path fill="#540000" d="M61.241,27.521c-0.164,0.236-0.311,0.475-0.476,0.713c-0.146,0.055-0.238-0.072-0.329-0.146
		c-0.293-0.219-0.623-0.365-0.952-0.512c-0.055,0.109,0.019,0.182,0.073,0.236c0.238,0.404,0.348,0.861,0.439,1.301
		c0.018,0.092,0.055,0.201-0.056,0.275c-0.219,0.219-0.421,0.439-0.641,0.676c-0.128-0.055-0.091-0.182-0.109-0.293
		c-0.165-0.896-0.695-1.52-1.501-2.068c0.018,0.385,0.109,0.715,0.146,1.045c0.055,0.438,0.073,0.877,0,1.336
		c-0.056,0.328,0,0.641,0.311,0.859c0.056,0.037,0.092,0.092,0.092,0.166c-1.903,1.701-4.101,2.855-6.572,3.479
		c-1.684,0.42-3.404,0.566-5.144,0.402c-3.094-0.275-5.877-1.373-8.312-3.314c0-0.164,0.146-0.219,0.257-0.273
		c0.713-0.348,1.409-0.752,2.05-1.246c0.183-0.146,0.329-0.109,0.494,0.055c0.952,0.953,2.087,1.648,3.313,2.215
		c0.128,0.057,0.257,0.111,0.385,0.146c0.22,0.057,0.385,0.02,0.457-0.219c0.184-0.641,0.477-1.209,1.136-1.52
		c-0.128-0.129-0.274-0.129-0.403-0.164c-1.263-0.293-2.489-0.66-3.643-1.264c-0.092-0.037-0.165-0.074-0.238-0.129
		c-0.183-0.092-0.22-0.238-0.073-0.385c0.751-0.787,1.354-1.664,1.904-2.598c0.146-0.221,0.384-0.275,0.586-0.385
		c0.421-0.184,0.476-0.385,0.146-0.732c-0.293-0.293-0.623-0.531-0.971-0.77c-0.165-0.109-0.312-0.109-0.458,0
		c-0.183,0.129-0.365,0.238-0.512,0.385c-0.22,0.219-0.458,0.311-0.77,0.293c-0.549,0-1.117,0-1.684,0
		c-0.422,0-0.458-0.092-0.275-0.457c0.184-0.367,0.385-0.715,0.824-0.824c0.109-0.02,0.184-0.129,0.274-0.201
		c0.293-0.166,0.604-0.33,0.897-0.477c0.659,0.092,1.3,0.109,1.94,0.092c0.439,0,0.86-0.074,1.281-0.146
		c0.22-0.037,0.421-0.146,0.586-0.293c0.329-0.311,0.312-0.77-0.055-1.043c-0.458-0.33-0.586-0.824-0.366-1.393
		c0.256,0.037,0.109,0.258,0.183,0.385c0.494-0.365,0.971-0.787,1.428-1.189c0.439-0.385,0.843-0.787,1.264-1.172
		c0.183,0.037,0.22,0.201,0.293,0.348c0.256,0.604,0.402,1.244,0.439,1.922c0.036,0.549,0.329,0.824,0.805,0.77
		c0.33-0.055,0.55-0.238,0.623-0.568c0.109-0.512-0.019-0.951-0.366-1.354c-0.348-0.385-0.751-0.66-1.19-0.916
		c-0.128-0.092-0.274-0.146-0.365-0.293c-0.037-0.238,0.164-0.348,0.274-0.494c0.128-0.164,0.274-0.33,0.439-0.457
		c0.384-0.146,0.805-0.129,1.208-0.146c0.201,0.092,0.238,0.311,0.366,0.457c0.439,0.715,0.604,1.52,0.695,2.324
		c0.019,0.129,0.037,0.258,0.073,0.367c0.128,0.385,0.439,0.531,0.824,0.402c0.109-0.037,0.22-0.127,0.348-0.146
		c0.312,0.166,0.494,0.439,0.641,0.75c-0.073,0.258,0.092,0.275,0.274,0.275c0.274,0.238,0.623,0.422,0.695,0.824
		c-0.183,0.311-0.457,0.531-0.695,0.787c-0.109,0.146-0.604,0.164-0.769,0.072c-0.184-0.109-0.201-0.658-0.019-0.859
		c0.019-0.02,0.037-0.037,0.055-0.055c0.129-0.111,0.348-0.166,0.293-0.367c-0.055-0.219-0.293-0.219-0.476-0.256
		c-0.439-0.092-0.897-0.146-1.337-0.219c-0.201-0.037-0.256,0.055-0.237,0.236c0.036,0.404,0.091,0.807,0.073,1.209
		c-0.019,0.219-0.092,0.348-0.33,0.348c-0.806,0-1.629,0.037-2.453-0.018c-0.091,0-0.237-0.111-0.237,0.055
		c-0.019,0.127,0.018,0.293,0.201,0.348c0.073,0.018,0.165,0,0.256-0.018c0.696-0.111,1.392-0.057,2.087-0.057
		c0.385,0,0.458,0.092,0.421,0.459c-0.018,0.439-0.018,0.879-0.073,1.318c-0.055,0.383-0.128,0.494-0.512,0.475
		c-0.934,0-1.85,0.055-2.783-0.018c-0.092-0.018-0.183-0.055-0.165,0.092c0.037,0.146,0.056,0.33,0.275,0.33
		c0.183-0.02,0.348-0.02,0.53-0.057c0.696-0.09,1.392-0.035,2.087-0.035c0.33,0,0.421,0.127,0.349,0.457
		c-0.439,2.16-1.483,3.99-3.131,5.455c-0.073,0.055-0.165,0.092-0.165,0.201c0.11,0.037,0.184-0.035,0.274-0.072
		c1.41-0.752,2.673-1.666,3.497-3.076c0.201-0.348,0.348-0.713,0.513-1.063c0.183-0.348,0.311-0.383,0.567-0.055
		c0.329,0.422,0.513,0.916,0.695,1.41c0.056,0.146,0.092,0.293,0.165,0.439c0.109,0.275,0.293,0.457,0.604,0.457
		c0.311-0.018,0.622-0.238,0.695-0.549c0.146-0.494,0-0.916-0.348-1.264c-0.458-0.439-1.007-0.676-1.593-0.859
		c-0.55-0.164-0.55-0.164-0.421-0.732c0.183-0.732,0.073-0.77,0.97-0.77c0.824,0.02,1.63,0.02,2.435,0
		c0.11,0,0.257,0.037,0.312-0.072c0.055-0.146-0.055-0.238-0.146-0.313c-0.256-0.293-0.586-0.529-0.896-0.768
		c-0.238-0.166-0.458-0.129-0.659,0.072c-0.146,0.146-0.274,0.293-0.421,0.459c-0.257,0.311-0.77,0.457-1.153,0.311
		c-0.092-0.018-0.165-0.074-0.165-0.184c0.073-0.641,0.109-1.264,0.22-1.904c0-0.018,0.036-0.018,0.055-0.035
		c0.257-0.092,0.513-0.055,0.769-0.055c0.604,0,1.209,0,1.813,0c0.806,0,1.392,0.566,1.41,1.373c0,0.42,0,0.842,0,1.281
		c0,0.273,0.018,0.566,0.348,0.695c0.348,0.127,0.879,0.018,1.043-0.256c0.165-0.275,0.385-0.348,0.678-0.33
		c0.842,0,1.685,0,2.526,0c0.165,0,0.348-0.037,0.476,0.129c-0.109,0.219-0.22,0.42-0.329,0.641
		C61.241,27.301,61.241,27.301,61.241,27.521z"/>
	<path fill="#4C4C4C" d="M27.502,30.139c-0.146,0.072-0.219,0.201-0.293,0.311c-0.805,1.154-1.701,2.215-2.837,3.057
		c-1.886,1.43-3.991,2.344-6.334,2.582c-4.412,0.439-8.092-1.025-11.057-4.303c-0.659-0.75-1.208-1.574-1.648-2.488
		c-0.055-0.074-0.11-0.146-0.11-0.238c0.128-0.109,0.238-0.037,0.348,0.018c0.677,0.367,1.428,0.459,2.178,0.494
		c0.165,0,0.33-0.018,0.458,0.074c0.128,0.273,0.055,0.566,0.073,0.842c0.018,0.275,0,0.549,0,0.842
		c0.018,0.275,0.146,0.422,0.421,0.494c0.659,0.146,1.062-0.164,1.08-0.824c0-0.365-0.019-0.713,0-1.08
		c0-0.273,0.146-0.42,0.421-0.42c0.348,0,0.714,0,1.08,0c0.202,0,0.348,0.092,0.366,0.311c0.055,0.439,0.421,0.586,0.75,0.549
		c0.421-0.035,0.696-0.293,0.732-0.695c0.036-0.385,0.019-0.77,0.019-1.135c0-0.238-0.019-0.457,0.018-0.678
		c0.494-0.512,1.08-0.879,1.721-1.152c0.02,0.695-0.164,1.373-0.365,2.031c-0.402,1.41-1.227,2.563-2.344,3.516
		c-0.183,0.164-0.402,0.328-0.585,0.566c0.201,0.02,0.33-0.072,0.476-0.146c1.355-0.586,2.526-1.391,3.333-2.672
		c0.622-1.025,0.896-2.16,1.062-3.35c0.073-0.422,0.055-0.879,0.183-1.301c0.348-0.33,0.751-0.586,1.099-0.916
		c0.091-0.09,0.201-0.182,0.312-0.018c0.109,0.221,0.092,0.439,0.092,0.66c0.018,2.031-0.129,4.045-0.074,6.059
		c0,0.129,0,0.238,0,0.348c-0.072,0.842,0.477,0.951,1.154,0.787c0.273-0.055,0.457-0.273,0.457-0.586
		c0-0.988,0.055-1.959-0.037-2.928c-0.036-0.258-0.018-0.496-0.018-0.752c0-1.135,0-2.287,0-3.424c0-0.273,0.037-0.494,0.293-0.641
		c0.092-0.055,0.183-0.127,0.164-0.256c-0.018-0.127-0.146-0.164-0.256-0.201c-0.238-0.072-0.513-0.072-0.75-0.146
		c-0.221-0.109-0.092-0.256-0.02-0.365c0.33-0.477,0.66-0.953,1.063-1.393c0.33-0.164,0.695-0.182,1.025-0.273
		c0.348-0.074,0.714-0.146,1.062-0.238c0.257-0.074,0.421,0.018,0.53,0.256c0.074,0.184,0.146,0.367,0.238,0.568
		c0.33,0.787,0.604,0.934,1.428,0.658c0.385,0.164,0.568,0.531,0.824,0.824c0.787,0.896,1.593,1.793,2.398,2.709
		c0.092,0.092,0.184,0.184,0.22,0.33c0.036,1.006,0.019,1.994,0,3.002C27.759,29.662,27.576,29.883,27.502,30.139z"/>
	<path fill="#A4A4A4" d="M50.624,17.672c-0.128-0.109-0.184-0.275-0.257-0.422c0.11-0.127,0.275-0.127,0.439-0.164
		c1.392-0.164,2.765-0.494,4.083-0.988c0.22-0.092,0.438-0.092,0.658-0.092c0.11,0,0.238,0,0.293-0.129
		c0.019-0.109-0.055-0.201-0.128-0.256c-0.385-0.348-0.806-0.658-1.245-0.934c-0.146-0.109-0.292-0.055-0.421,0.037
		c-1.153,0.805-2.416,1.354-3.716,1.83c-0.128,0.037-0.238,0.092-0.366,0.037c-0.348-0.385-0.531-0.879-0.751-1.336
		c-0.293-0.641-0.604-1.301-0.878-1.959c-0.129-0.313-0.275-0.641-0.202-0.988c0.55-0.184,1.099-0.33,1.647-0.495
		c0.806-0.257,1.593-0.513,2.325-0.989c0.915-0.585,1.611-1.391,2.014-2.397c0.604-1.446,1.153-2.911,1.538-4.43
		c0.109-0.403,0.165-0.824,0.165-1.263c-0.019-0.366-0.146-0.659-0.477-0.878c-0.109-0.073-0.22-0.146-0.274-0.275
		c0-0.037,0.019-0.073,0.037-0.091c0.256-0.128,0.549-0.11,0.787-0.238c0,0.128,0.055,0.202,0.201,0.183
		c0.293,0,0.586,0.019,0.879,0c0.641,0,1.3,0.037,1.922,0.238c0.165,0.055,0.329,0.037,0.494,0.073
		c0.897,0.165,1.739,0.476,2.563,0.842c0.146,0.073,0.311,0.11,0.365,0.293c0.715,0.513,0.843,1.282,0.897,2.087
		c0.055,1.3-0.312,2.545-0.879,3.697c-1.227,2.473-2.801,4.688-4.796,6.609c-0.22,0.219-0.421,0.439-0.714,0.549
		c-0.184-0.109-0.184,0.037-0.22,0.146c-0.385,0.457-0.916,0.732-1.373,1.1c-0.184,0.127-0.33,0.273-0.55,0.348
		c-0.311-0.129-0.366,0.127-0.457,0.328c-0.513,0.367-1.044,0.66-1.593,0.971c-0.073,0.037-0.146,0.074-0.22,0.055
		c-0.477-0.273-0.842-0.678-1.318-0.914C50.935,17.781,50.789,17.689,50.624,17.672z"/>
	<path fill="#4C4C4C" d="M56.793,15.768c0.257-0.146,0.458-0.348,0.678-0.549c0.695-0.623,1.336-1.318,1.903-2.068
		c0.824-1.117,1.647-2.234,2.325-3.424c0.604-1.063,1.08-2.143,1.318-3.35c0.146-0.77,0.146-1.557-0.019-2.326
		c-0.073-0.348-0.22-0.641-0.476-0.878C62.432,3.1,62.34,3.008,62.321,2.88c0.037,0,0.073,0,0.129,0
		c0.036,0.018,0.091,0.018,0.146,0.055c0.091,0.036,0.201,0.073,0.293,0.128c1.391,0.915,2.69,1.904,3.734,3.222
		c1.428,1.813,2.27,3.862,2.526,6.15c0.091,0.77,0.164,1.539,0.128,2.326c-0.037,1.721-0.513,3.35-1.264,4.906
		c-0.622,1.316-1.464,2.488-2.525,3.514c-0.238,0.037-0.366-0.164-0.55-0.273c-0.402-0.258-0.494-0.258-0.842,0.072
		c-0.934,0.916-0.531,0.75-1.904,0.77c-1.135,0-2.288,0-3.441,0c-0.494,0-0.567-0.092-0.586-0.605c0-0.293,0-0.604,0-0.896
		c0.019-0.256,0.146-0.365,0.385-0.365c1.189-0.02,2.38-0.02,3.569,0c0.184,0,0.348,0.055,0.421,0.219
		c0.22,0.422,0.897,0.457,1.3,0.221c0.184-0.111,0.275-0.275,0.257-0.477c0-0.842,0.055-1.684-0.037-2.527
		c-0.055-0.494-0.018-0.969,0-1.463c0-0.166,0.092-0.313,0.22-0.422c0.274-0.293,0.274-0.477-0.018-0.75
		c-0.22-0.201-0.458-0.402-0.715-0.568c-0.311-0.184-0.512-0.219-0.731,0.092c-0.385,0.512-0.86,0.568-1.429,0.531
		c-0.384-0.037-0.787,0-1.171-0.02c-0.092,0-0.202,0-0.238-0.09c-0.055-0.111,0.036-0.203,0.109-0.258
		c0.458-0.348,0.806-0.822,1.41-0.951c0.256-0.055,0.274-0.275,0.036-0.402c-0.513-0.33-1.098-0.439-1.684-0.586
		c-0.201-0.037-0.201,0.127-0.22,0.256c-0.055,0.457-0.146,0.916-0.22,1.373c-0.128,0.805-0.659,0.787-1.208,0.512
		c-0.385-0.182-0.77-0.383-1.153-0.566C56.958,15.951,56.812,15.932,56.793,15.768z"/>
	<path fill="#540000" d="M55.896,1.25c-0.056,0.11-0.129,0.22-0.293,0.202c-0.165-0.019-0.348,0.091-0.531,0.037
		c-0.201,0-0.22-0.165-0.256-0.293c-0.604-1.904-1.446-3.698-2.582-5.327c-1.062-1.52-2.288-2.911-3.734-4.101
		c-0.769-0.604-1.556-1.171-2.38-1.702c-0.109-0.073-0.293-0.11-0.274-0.312c-0.019-0.238,0.11-0.421,0.22-0.623
		c0.421-0.805,0.732-1.629,0.952-2.508c0.146-0.586,0.256-1.19,0.238-1.794c-0.037-0.824-0.202-1.593-0.642-2.307
		c-0.073-0.128-0.183-0.22-0.274-0.348c-0.036-0.073-0.146-0.146-0.019-0.256c0.824,0.256,1.575,0.604,2.307,1.025
		c3.644,2.124,6.17,5.163,7.359,9.227c0.751,2.526,0.824,5.071,0.293,7.634C56.171,0.299,56.061,0.774,55.896,1.25z"/>
	<path fill="#003D82" d="M27.74,29.535c0-1.08,0.019-2.16,0.019-3.24c-0.11-0.166-0.091-0.35-0.091-0.531
		c0-1.117-0.02-2.215,0-3.332c0.018-1.246-0.074-2.49-0.11-3.734c0-0.33,0.073-0.402,0.384-0.293
		c0.422,0.164,0.824,0.365,1.209,0.586c0.109,0.055,0.201,0.109,0.311,0.146c0.221,0.055,0.348-0.02,0.348-0.258
		c0.02-0.805,0.02-1.592,0.02-2.396c-0.02-0.221-0.146-0.275-0.33-0.293c-0.549-0.02-1.099,0.055-1.647,0.092
		c-0.403,0.035-0.659-0.238-0.622-0.643c0.018-0.219,0.183-0.219,0.348-0.182c0.566,0.092,1.135,0.072,1.702,0.072
		c1.263,0,2.526-0.018,3.79,0c0.273,0,0.494-0.072,0.677-0.311c0.165-0.201,0.366-0.385,0.567-0.568
		c0.184-0.182,0.402-0.219,0.641-0.092c0.458,0.275,0.897,0.568,1.281,0.934c0.037,0.037,0.055,0.074,0.092,0.111
		c0.092,0.109,0.165,0.238,0.092,0.402c-0.055,0.146-0.22,0.184-0.366,0.184c-0.329,0.018-0.641,0-0.97,0c-0.458,0-0.897,0-1.355,0
		c-0.219,0-0.329,0.072-0.329,0.311c0,0.787-0.019,1.574,0,2.361c0,0.293,0.146,0.367,0.384,0.184
		c0.184-0.129,0.312-0.293,0.477-0.422c0.256-0.201,0.494-0.219,0.75-0.055c0.33,0.221,0.678,0.439,0.916,0.75
		c0.219,0.313,0.219,0.531-0.073,0.787c-0.238,0.221-0.312,0.459-0.293,0.77c0,1.08,0,2.16-0.019,3.24
		c0.019,0.055,0.019,0.129,0.019,0.184c0.091,1.41,0.073,2.818,0.073,4.229c0,0.164,0.018,0.33-0.073,0.494
		c-0.056,0.092-0.036,0.221-0.036,0.33c0,0.531,0,1.08,0.018,1.611c0,0.457-0.201,0.676-0.659,0.732
		c-0.165,0.018-0.312,0.018-0.476,0c-0.348-0.037-0.494-0.184-0.513-0.531c-0.019-0.275-0.019-0.275-0.274-0.275
		c-1.336-0.018-2.654-0.018-3.973,0c-0.256,0-0.256,0-0.256,0.256c-0.02,0.275,0,0.531-0.02,0.807c0,0.385-0.201,0.604-0.566,0.678
		c-0.184,0.035-0.385,0.035-0.568,0.018c-0.384-0.055-0.566-0.238-0.566-0.641c0.018-0.531,0.036-1.063,0.055-1.611
		c0-0.109,0.018-0.219-0.037-0.33C27.612,29.883,27.686,29.717,27.74,29.535z"/>
	<path fill="#003D82" d="M56.793,15.768c0.494,0.238,1.007,0.477,1.483,0.77c0.256,0.146,0.513,0.092,0.769,0.092
		c0.109,0,0.128-0.111,0.165-0.203c0.128-0.438,0.22-0.877,0.274-1.336c0.019-0.219,0.036-0.457,0.055-0.678
		c0.019-0.127,0.092-0.146,0.184-0.109c0.604,0.166,1.227,0.275,1.794,0.568c0.073,0.037,0.146,0.072,0.201,0.127
		c0.183,0.129,0.165,0.313,0,0.439c-0.146,0.111-0.33,0.129-0.477,0.166c-0.109,0.035-0.201,0.035-0.274,0.109
		c-0.274,0.293-0.604,0.549-0.915,0.805c-0.037,0.02-0.055,0.037-0.019,0.111c0.274,0,0.586,0,0.879,0c0.385,0,0.769,0,1.153,0
		c0.165,0.018,0.293-0.057,0.385-0.184c0.164-0.221,0.348-0.422,0.586-0.549c0.091-0.037,0.164-0.074,0.256-0.02
		c0.476,0.221,0.879,0.549,1.208,0.934c0.184,0.238,0.165,0.459-0.073,0.623c-0.256,0.146-0.293,0.348-0.293,0.623
		c0,1.207,0.11,2.416,0.073,3.625c-0.018,0.566-0.146,0.75-0.695,0.859c-0.402,0.092-0.897,0-1.025-0.348
		c-0.092-0.201-0.201-0.238-0.384-0.238c-1.172,0-2.344,0-3.516,0c-0.311,0-0.311,0.02-0.311,0.33c0,0.348,0,0.713,0,1.08
		c0,0.256,0.036,0.273,0.293,0.273c1.501,0.02,3.021,0,4.521,0.02c0.165,0,0.274-0.055,0.384-0.166
		c0.22-0.236,0.439-0.457,0.659-0.676c0.293-0.293,0.385-0.293,0.732-0.074c0.22,0.146,0.421,0.293,0.623,0.439
		c0.128,0.129,0.256,0.256,0.384,0.385c0.073,0.072,0.128,0.146,0.165,0.238c0.036,0.146,0,0.238-0.146,0.273
		c-0.092,0.02-0.201,0.02-0.293,0.02c-0.402,0.018-0.806-0.02-1.208,0.037c-0.201,0.09-0.403,0.09-0.623,0.09
		c-1.629,0-3.24,0-4.869,0c-0.513,0-0.531,0.02-0.513,0.531c0,0.367-0.073,0.75,0.019,1.1c0.019,0.035,0.055,0.072,0.073,0.09
		c0.402,0.092,0.787,0.037,1.189,0.037c0.696-0.018,1.392,0.02,2.087,0c0.11,0,0.22,0.02,0.312,0.092c0.402,0,0.806-0.018,1.208,0
		c0.238,0,0.403-0.055,0.55-0.238c0.164-0.219,0.366-0.402,0.567-0.586c0.146-0.127,0.293-0.146,0.457-0.035
		c0.422,0.256,0.806,0.529,1.136,0.896c0.22,0.238,0.201,0.33-0.019,0.566c-0.037,0.055-0.092,0.111-0.146,0.146
		c-0.146,0.092-0.184,0.238-0.201,0.422c-0.128,1.189-0.274,2.379-0.604,3.551c-0.109,0.439-0.293,0.842-0.549,1.227
		c-0.494,0.752-1.227,1.008-2.087,0.988c-0.293-0.018-0.385-0.09-0.458-0.402c-0.092-0.457-0.366-0.75-0.769-0.951
		c-0.312-0.146-0.623-0.256-0.952-0.385c-0.055-0.018-0.128-0.037-0.184-0.055c-0.091-0.055-0.109-0.146-0.073-0.238
		c0.019-0.109,0.092-0.092,0.184-0.072c0.494,0.035,1.007,0.09,1.501,0.146c0.312,0.018,0.604,0.018,0.915,0.035
		c0.257,0,0.439-0.109,0.586-0.348c0.129-0.219,0.201-0.457,0.275-0.713c0.311-1.137,0.421-2.289,0.494-3.441
		c-0.092-0.074-0.184-0.057-0.275-0.057c-0.53,0-1.062,0-1.574,0c-0.109,0-0.22-0.018-0.293,0.057
		c-0.109-0.057-0.22-0.037-0.329-0.037c-0.952,0-1.886,0-2.838-0.02c-0.183,0-0.293,0.037-0.366,0.238
		c-0.128,0.33-0.567,0.477-0.988,0.422c-0.494-0.074-0.659-0.238-0.659-0.75c0-0.459,0.019-0.916,0.019-1.373
		c0.092-0.422-0.055-0.807-0.055-1.209c0-2.051,0-4.119,0-6.17c0-0.385,0.018-0.75-0.055-1.135
		c-0.019-0.201-0.037-0.402,0.091-0.586C56.592,15.713,56.592,15.713,56.793,15.768z"/>
	<path fill="#003D82" d="M13.242,27.758c0,0.586-0.02,1.191,0.018,1.777c0.037,0.859-0.86,1.08-1.354,0.859
		c-0.238-0.109-0.348-0.293-0.348-0.531s-0.019-0.273-0.275-0.273c-0.384,0-0.769,0-1.135,0c-0.22,0-0.256,0.035-0.275,0.256
		c0,0.42,0,0.842,0,1.264c0,0.512-0.146,0.676-0.659,0.787c-0.22,0.055-0.421,0.055-0.623,0c-0.293-0.092-0.403-0.184-0.403-0.494
		c-0.018-0.439,0-0.879,0-1.318c0-0.146,0-0.293-0.018-0.439c-0.146-0.293-0.092-0.605-0.073-0.896
		c0.091-0.789,0.037-1.594,0.055-2.381c0.019-0.568,0-1.117,0.037-1.721c-0.183,0.146-0.33,0.311-0.476,0.477
		c-0.22,0.273-0.476,0.529-0.75,0.768c-0.11,0.074-0.238,0.146-0.366,0.037c-0.128-0.092-0.091-0.238-0.018-0.365
		c0.11-0.238,0.274-0.459,0.384-0.697c0.476-0.877,0.879-1.775,1.19-2.709c0.037-0.127,0.073-0.238,0.165-0.328
		c0.219-0.439,0.311-0.916,0.421-1.373c0.33-1.227,0.513-2.473,0.623-3.771c-0.604,0.018-1.19-0.037-1.776,0.055
		c-0.055,0-0.11,0.018-0.165,0.018c-0.238,0.037-0.238,0.037-0.329-0.201c-0.037-0.129-0.073-0.238-0.11-0.365
		c0-0.02,0-0.037,0-0.074c0.073-0.072,0.165-0.018,0.256,0c0.384,0.074,0.787,0.109,1.19,0.109c0.897-0.018,1.812-0.018,2.709,0
		c0.293,0,0.495-0.055,0.659-0.328c0.146-0.258,0.348-0.494,0.567-0.697c0.239-0.219,0.311-0.236,0.568-0.072
		c0.421,0.311,0.842,0.641,1.19,1.025c0.091,0.109,0.219,0.238,0.164,0.385c-0.055,0.201-0.256,0.146-0.402,0.146
		c-0.806,0-1.593,0.018-2.398,0c-0.165,0-0.238,0.055-0.256,0.219c-0.183,1.447-0.567,2.838-1.099,4.193
		c-0.037,0.566-0.037,0.549,0.531,0.586c0.439,0.018,0.787-0.092,1.062-0.439c0.055-0.092,0.146-0.146,0.22-0.221
		c0.33-0.256,0.513-0.273,0.842-0.037c0.274,0.184,0.53,0.385,0.751,0.641c0.256,0.313,0.273,0.605-0.02,0.898
		c-0.201,0.182-0.237,0.385-0.237,0.641c0,0.934,0,1.848,0,2.801c0,0.457,0.091,0.914,0.073,1.373
		C13.333,27.484,13.352,27.631,13.242,27.758z"/>
	<path fill="#003D82" d="M41.05,23.658c-0.11,0.184-0.312,0.273-0.513,0.33c-0.146,0.035-0.256,0.127-0.33,0.273
		c-0.109,0.238-0.238,0.457-0.365,0.678c0.091,0.092,0.183,0.055,0.273,0.055c0.623,0.018,1.245,0,1.886,0.018
		c0.184,0,0.349-0.055,0.477-0.182c0.201-0.201,0.439-0.367,0.677-0.531c0.129-0.092,0.275-0.129,0.422-0.018
		c0.421,0.273,0.823,0.566,1.153,0.934c0.292,0.328,0.237,0.604-0.184,0.75c-0.402,0.127-0.641,0.365-0.842,0.732
		c-0.477,0.842-1.062,1.592-1.721,2.287c-0.037,0.037-0.056,0.074-0.11,0.129c0.366,0.219,0.714,0.385,1.099,0.549
		c1.043,0.439,2.142,0.732,3.24,0.988c0.055,0.02,0.109,0.02,0.165,0.037c0.091,0.037,0.091,0.129,0.036,0.201
		c-0.036,0.02-0.073,0.055-0.109,0.055c-0.494,0.184-0.751,0.605-0.934,1.063c-0.056,0.146-0.11,0.311-0.165,0.477
		c-0.092,0.201-0.184,0.256-0.402,0.201c-0.129-0.02-0.257-0.074-0.385-0.129c-1.099-0.494-2.142-1.08-3.039-1.904
		c-0.201-0.164-0.402-0.365-0.586-0.549c-0.109,0-0.164,0.092-0.238,0.146c-0.641,0.477-1.336,0.896-2.068,1.244
		c-0.109,0.057-0.22,0.074-0.274,0.184c-0.128,0-0.237,0.055-0.348,0.109c-0.952,0.404-1.923,0.678-2.911,0.898
		c-0.092,0.018-0.183,0.035-0.274,0.055c-0.073,0-0.11-0.037-0.146-0.109c-0.019-0.074-0.019-0.146,0.056-0.184
		c0.072-0.037,0.164-0.074,0.237-0.109c0.806-0.313,1.574-0.697,2.325-1.137c0.072-0.072,0.219-0.09,0.219-0.219
		c0.752-0.549,1.52-1.098,2.16-1.775c0.293-0.293,0.293-0.313,0.092-0.66c-0.311-0.529-0.53-1.115-0.769-1.684
		c-0.128-0.311-0.146-0.33-0.366-0.072c-0.622,0.676-1.373,1.17-2.178,1.629c-0.184,0.092-0.403,0.293-0.586,0.072
		c-0.184-0.219,0.072-0.402,0.219-0.549c0.953-0.934,1.648-2.051,2.143-3.295c0.201-0.568,0.385-1.154,0.512-1.758
		c0.037-0.146,0.092-0.293,0.293-0.311c0.623,0.127,1.246,0.33,1.831,0.566C40.922,23.219,41.178,23.328,41.05,23.658z"/>
	<path fill="#003D82" d="M24.445,22.578c-0.348,0.238-0.695,0.273-1.062,0.072c-0.22-0.127-0.312-0.348-0.403-0.531
		c-0.109-0.256-0.201-0.512-0.311-0.75c-0.129-0.256-0.129-0.311-0.458-0.238c-0.641,0.184-1.3,0.33-1.959,0.439
		c-0.036,0.02-0.073,0.037-0.128,0.055c-0.477,0.258-1.025,0.275-1.557,0.35c-1.043,0.182-2.068,0.328-3.111,0.42
		c-0.201,0.037-0.33,0.129-0.422,0.293c-0.091,0.184-0.219,0.311-0.439,0.293c-0.219-0.018-0.348-0.164-0.42-0.365
		c-0.238-0.586-0.348-1.227-0.494-1.85c-0.037-0.221,0.091-0.275,0.273-0.256c0.531,0.018,1.025,0.092,1.557,0.092
		c0.293-0.02,0.477-0.111,0.586-0.385c0.256-0.695,0.549-1.393,0.732-2.105c0.092-0.385,0.055-0.439-0.33-0.439s-0.75,0-1.116,0
		c-0.403,0-0.788,0.018-1.172-0.037c-0.384,0.037-0.384,0.037-0.494-0.348c-0.019-0.092-0.036-0.164-0.073-0.256
		c0-0.02,0.018-0.037,0.037-0.074c0.293,0,0.604,0.111,0.914,0.092c0.092-0.072,0.221-0.055,0.33-0.055c0.842,0.018,1.684,0,2.526,0
		c0.384,0,0.421-0.018,0.421-0.422c-0.018-0.494,0.037-1.006-0.055-1.5c0-0.109,0-0.201-0.019-0.311
		c0-0.404,0.036-0.477,0.439-0.439c0.659,0.035,1.318,0.127,1.959,0.311c0.183,0.055,0.403,0.146,0.421,0.385
		c0.037,0.238-0.146,0.402-0.348,0.475c-0.256,0.129-0.33,0.313-0.312,0.568c0.019,0.221,0,0.422,0,0.641
		c0,0.184,0.092,0.293,0.274,0.311c0.586,0,1.172,0,1.758-0.018c0.184,0,0.311-0.109,0.421-0.238
		c0.257-0.273,0.531-0.549,0.806-0.805c0.311-0.293,0.457-0.313,0.806-0.074c0.402,0.275,0.787,0.586,1.153,0.916
		c0.184,0.164,0.421,0.348,0.311,0.623c-0.109,0.293-0.402,0.256-0.641,0.256c-1.592,0-3.166,0.018-4.76,0
		c-0.53-0.092-0.879,0.109-1.152,0.604c-0.439,0.732-1.008,1.373-1.63,1.959c-0.11,0.092-0.201,0.184-0.329,0.367
		c1.318-0.02,2.6,0.035,3.862-0.074c0.274,0,0.53,0.018,0.806,0c0.128-0.018,0.311,0.018,0.366-0.109
		c0.055-0.129-0.092-0.221-0.146-0.33c-0.128-0.146-0.238-0.293-0.366-0.439c-0.22-0.273-0.513-0.477-0.77-0.713
		c-0.091-0.074-0.183-0.166-0.146-0.293c0.037-0.146,0.184-0.129,0.313-0.129c1.135,0.256,2.196,0.695,3.094,1.445
		c0.566,0.459,0.934,1.045,0.878,1.795C24.848,22.084,24.812,22.412,24.445,22.578z"/>
	<path fill="#A4A4A4" d="M14.212,17.635c0.036-0.055,0.091-0.055,0.146-0.055c0.806,0,1.61,0,2.397-0.018
		c0.275,0,0.275,0.018,0.221,0.293c-0.201,0.934-0.568,1.793-0.916,2.672c-0.055,0.146-0.146,0.164-0.293,0.164
		c-0.658,0-1.318-0.035-1.977-0.109c-0.073,0.074-0.019,0.146,0,0.221c0.128,0.529,0.22,1.08,0.402,1.609
		c0.037,0.111,0.073,0.221,0.146,0.33c0.146,0.256,0.385,0.256,0.568,0c0.018-0.018,0.036-0.055,0.036-0.072
		c0.055-0.293,0.274-0.348,0.53-0.367c0.916-0.092,1.85-0.219,2.765-0.365c0.641-0.092,1.263-0.201,1.886-0.313
		c-0.385,0.531-0.77,1.08-1.153,1.611c-0.22,0.146-0.458,0.02-0.677,0.02c-0.184,0-0.257,0.035-0.238,0.219
		c0.018,0.221,0.018,0.439,0,0.66c0,0.055-0.019,0.109-0.037,0.164c-0.018,0.018-0.037,0.018-0.037,0.037
		c-0.365,0.311-0.731,0.604-1.098,0.914c-0.055,0.037-0.109,0.092-0.201,0.111c-0.22-0.496-0.129-0.99,0.256-1.355
		c0.22-0.201,0.184-0.367-0.092-0.439c-0.549-0.146-1.135-0.201-1.702-0.238c-0.237-0.018-0.183,0.184-0.165,0.311
		c0.092,0.551,0.037,1.117,0.055,1.686c0.02,0.385-0.055,0.75-0.072,1.135c-0.019,0.092-0.019,0.184-0.11,0.238
		c-0.513,0.402-1.044,0.732-1.61,1.061c-0.037-1.629-0.056-3.258-0.056-4.887c0-0.146,0.036-0.256,0.165-0.33
		c0.073-0.037,0.146-0.109,0.201-0.184c0.146-0.164,0.165-0.328,0.019-0.512c-0.274-0.385-0.659-0.678-1.062-0.916
		c-0.128-0.072-0.238-0.037-0.348,0.037c-0.238,0.164-0.421,0.365-0.604,0.586c-0.146,0.146-0.293,0.219-0.513,0.201
		c-0.256-0.018-0.531,0-0.806,0c-0.274-0.018-0.33-0.092-0.238-0.348c0.037-0.109,0.037-0.238,0.128-0.311
		c0.019,0.146,0.11,0.109,0.202,0.072c0.458-0.146,0.897-0.33,1.318-0.566c1.154-0.623,2.05-1.502,2.599-2.711
		C14.285,17.799,14.395,17.689,14.212,17.635z"/>
	<path fill="#A4A4A4" d="M8.317,21.828c0.018,0.127-0.037,0.236-0.073,0.348c-0.421,1.17-0.916,2.307-1.556,3.367
		c-0.073,0.109-0.22,0.238-0.055,0.348c0.146,0.129,0.238-0.035,0.33-0.127c0.421-0.385,0.787-0.807,1.153-1.227
		c0.037-0.037,0.073-0.092,0.165-0.184c-0.037,1.813-0.019,3.551-0.11,5.291c-0.659,0.055-1.318-0.037-1.959-0.201
		c-0.238-0.074-0.494-0.129-0.696-0.293c-0.091-0.074-0.183-0.092-0.293-0.092c-0.219-0.275-0.348-0.586-0.458-0.896
		c-0.403-1.063-0.696-2.16-0.824-3.277c-0.11-0.934-0.091-1.867,0-2.801c0.018-0.109,0.037-0.221,0.073-0.33
		c0.037-0.072,0.11-0.072,0.165,0c0.019,0,0.019,0.037,0.019,0.055c0.146,0.568,0.879,0.824,1.464,0.75
		c0.513-0.072,1.025-0.201,1.501-0.383C7.548,22.029,7.915,21.883,8.317,21.828z"/>
	<path fill="#540000" d="M38.121,24.738c-0.495,1.264-1.209,2.379-2.18,3.332c-0.055,0.055-0.127,0.127-0.201,0.219
		c-0.036,0.055-0.036,0.129,0.019,0.184c0.036,0.055,0.11,0.055,0.146,0.037c0.091-0.037,0.183-0.074,0.257-0.129
		c0.823-0.422,1.592-0.951,2.251-1.629c0.092-0.109,0.183-0.221,0.274-0.311c0.146,0.035,0.146,0.146,0.184,0.219
		c0.256,0.715,0.567,1.391,0.934,2.051c0.128,0.238,0.128,0.238-0.073,0.42c-0.622,0.66-1.337,1.227-2.087,1.74
		c-0.092,0.055-0.165,0.146-0.275,0.109c-0.658-0.604-1.263-1.264-1.812-1.959c-0.056-0.129-0.036-0.238-0.036-0.365
		c0-1.045,0-2.088-0.02-3.131c0-0.422-0.072-0.842-0.018-1.244c0.164,0.055,0.128,0.219,0.128,0.328c0,0.221,0.11,0.293,0.312,0.293
		c0.604,0.02,1.189-0.072,1.775-0.164C37.846,24.719,37.992,24.646,38.121,24.738z"/>
	<path fill="#A4A4A4" d="M17.91,15.035c0.018,0.074,0.036,0.164,0.055,0.256c0,0.531,0,1.08,0,1.611
		c0,0.129-0.037,0.201-0.184,0.184c-0.988,0-1.995,0-2.983,0c-0.073,0-0.128-0.037-0.202-0.037c0.439-1.172,0.934-2.307,1.227-3.514
		c0.056-0.184,0.074-0.35,0.056-0.531c0.055-0.02,0.11-0.02,0.165-0.037c0.109-0.055,0.201,0.018,0.256,0.092
		C16.848,13.717,17.434,14.322,17.91,15.035z"/>
	<path fill="#4C4C4C" d="M58.313,26.02c-0.073-0.109-0.036-0.221-0.036-0.33c0-0.42,0-0.824,0-1.244c0-0.311,0-0.33,0.311-0.33
		c1.136,0,2.271,0,3.405,0c0.806,0,1.611,0.02,2.398,0.02c-0.531,0.438-1.099,0.859-1.758,1.152
		c-0.165,0.074-0.329,0.184-0.439,0.33c-0.329,0.109-0.622,0.365-0.97,0.348c-0.056,0.018,0,0.072-0.019,0.037c0,0,0,0,0.019-0.02
		c0.274-0.037,0.549-0.127,0.806,0.037c0.036,0.018,0.036,0.018,0.036,0.055c-1.189,0-2.38,0-3.569,0c-0.073,0-0.11,0-0.165-0.037
		c0.329-0.219,0.695-0.072,1.043-0.072c-0.329,0-0.622-0.166-0.934-0.275C58.386,25.799,58.459,25.945,58.313,26.02z"/>
	<path fill="#003D82" d="M58.239,31.109c-0.019-0.02-0.036-0.037-0.055-0.037c-0.385-0.164-0.458-0.494-0.439-0.861
		c0-0.236,0.036-0.457,0.036-0.695c0.019-0.566-0.055-1.117-0.183-1.666c-0.019-0.072-0.092-0.182,0.019-0.238
		c0.073-0.055,0.146,0.02,0.201,0.057c0.678,0.494,1.227,1.08,1.428,1.922c0.037,0.164,0.037,0.311,0.055,0.475
		c0,0.092-0.018,0.166-0.018,0.258c-0.073,0.457-0.312,0.695-0.77,0.75C58.423,31.072,58.331,31.055,58.239,31.109z"/>
	<path fill="#003D82" d="M59.941,29.389c-0.036-0.697-0.311-1.318-0.658-1.924c0.586,0.111,1.043,0.439,1.482,0.77
		c0.11,0.129,0.22,0.238,0.312,0.367c0.22,0.291,0.329,0.621,0.293,0.988c-0.056,0.494-0.477,0.805-0.916,0.713
		c-0.201-0.037-0.329-0.127-0.384-0.328C60.033,29.771,59.979,29.57,59.941,29.389z"/>
	<path fill="#013D82" d="M61.241,27.521c-0.018-0.129-0.237-0.166-0.164-0.293c0.091-0.129,0.237,0.018,0.348,0
		c0.274,0.109,0.567,0.219,0.842,0.328c0.257,0.111,0.494,0.275,0.678,0.477c0.256,0.293,0.384,0.641,0.256,1.025
		c-0.036,0.127-0.109,0.238-0.22,0.33c-0.293,0.273-0.714,0.182-0.86-0.203c-0.109-0.219-0.164-0.475-0.274-0.713
		C61.718,28.125,61.534,27.777,61.241,27.521z"/>
	<path fill="#500B11" d="M62.047,26.02c-0.329,0-0.622,0-0.951,0c0.329-0.129,0.658-0.275,0.951-0.439
		c0.073-0.037,0.11-0.018,0.146,0.037C62.139,25.744,62.084,25.891,62.047,26.02z"/>
	<path fill="#550D0D" d="M27.74,29.535c0,0.182,0.037,0.365-0.055,0.529c-0.055,0.02-0.128,0.055-0.184,0.074
		c-0.018-0.037-0.072-0.055-0.055-0.074C27.521,29.883,27.576,29.682,27.74,29.535z"/>
	<path fill="#A4A4A4" d="M62.597,2.935c-0.073,0-0.11,0-0.146-0.055C62.505,2.862,62.56,2.88,62.597,2.935z"/>
	<path fill="#540000" d="M15.018,3.813c0.128,0.018,0.238,0.073,0.329,0.165c0.349,0.348,0.788,0.495,1.263,0.568
		c0.66,0.091,1.337,0.11,1.996,0.055c0.952-0.055,1.886-0.274,2.764-0.623c1.117-0.402,2.18-0.934,3.186-1.538
		c0.055-0.037,0.11-0.073,0.165-0.11c0.165-0.11,0.293,0,0.421,0.073c0.257,0.183,0.55,0.312,0.879,0.403
		c0.33,0.22,0.695,0.403,1.08,0.549c0.22,0.165,0.477,0.311,0.751,0.402c0.366,0.202,0.769,0.348,1.099,0.604
		c0.072,0.256,0.055,0.512,0.036,0.768c-0.019,0.184-0.146,0.313-0.329,0.221c-0.623-0.33-1.154-0.109-1.666,0.219
		c-0.055,0.037-0.11,0.056-0.146,0.092c-0.11,0.092-0.33,0.092-0.33,0.257c-0.018,0.128,0.184,0.165,0.275,0.257
		c0.183,0.164,0.164,0.273-0.074,0.438c-0.091,0.073-0.256,0.092-0.219,0.238c0.018,0.146,0.164,0.183,0.274,0.237
		c0.183,0.092,0.366,0.074,0.549-0.018c0.513-0.275,0.989-0.22,1.483,0.055c0.274,0.146,0.549,0.311,0.823,0.457
		c0.22,0.129,0.22,0.221,0.019,0.367c-0.055,0.055-0.109,0.072-0.165,0.109c-0.091,0.073-0.22,0.092-0.201,0.22
		c0.019,0.11,0.165,0.146,0.257,0.165c0.055,0.018,0.091,0.018,0.146,0.018c0.75-0.127,1.52-0.036,2.287-0.018
		c0.202,0,0.385-0.037,0.568-0.146c0.293-0.165,0.586-0.33,0.915-0.549c-0.201-0.092-0.403-0.129-0.53-0.257
		c-0.184-0.183-0.313-0.384-0.313-0.641c-0.018-1.409-0.036-2.819,0-4.21c0.11-0.256,0.349-0.312,0.531-0.439
		c0.146-0.073,0.293-0.165,0.439-0.238c0.037-0.018,0.055-0.036,0.092-0.036c0.055-0.019,0.128-0.037,0.184-0.073
		c0.256-0.055,0.439-0.238,0.658-0.366c0.312-0.128,0.604-0.238,0.916-0.366c0.476-0.22,0.769-0.531,0.842-1.08
		c0.055-0.586,0.037-1.172-0.037-1.758c0-0.348-0.018-0.714,0-1.062c0.092-0.934,0.074-1.849,0.074-2.783
		c-0.02-0.183-0.037-0.348-0.146-0.513c-0.422-0.439-1.008-0.622-1.502-0.915c-0.183-0.11-0.421-0.128-0.512-0.366
		c0.348-0.696,0.713-1.391,0.951-2.124c0.275-0.787,0.494-1.593,0.568-2.435c0.072-0.806-0.056-1.538-0.349-2.271
		c-0.11-0.274-0.257-0.531-0.458-0.732c-0.091-0.092-0.183-0.146-0.164-0.312c0.329,0.073,0.658,0.183,0.951,0.312
		c1.227,0.476,2.381,1.062,3.442,1.849c0.146,0.091,0.293,0.201,0.476,0.238c1.227,0.934,2.307,1.996,3.186,3.258
		c0.879,1.245,1.538,2.582,2.068,4.009c0.33,0.879,0.458,1.813,0.567,2.728c0.257,1.867-0.146,3.643-0.677,5.418
		c-0.623,2.087-1.776,3.882-3.204,5.528c-1.903,2.16-4.21,3.771-6.864,4.852c-1.465,0.604-2.967,1.08-4.559,1.209
		c-0.861,0.055-1.721,0.146-2.582,0.109c-0.658-0.02-1.299-0.037-1.939-0.256c-0.146-0.037-0.312-0.074-0.494-0.111
		c-2.216-0.365-4.083-1.428-5.73-2.91c-0.714-0.641-1.336-1.336-1.886-2.105c-0.201-0.256-0.403-0.512-0.604-0.769
		c-0.036-0.036-0.055-0.091-0.092-0.128c-0.713-1.172-1.299-2.398-1.684-3.716C15.018,4.143,14.926,3.978,15.018,3.813z"/>
	<path fill="#4D4D01" d="M16.885,8.061c0.439,0.477,0.75,1.025,1.172,1.52c0.402,0.439,0.805,0.896,1.263,1.3
		c0.604,0.55,1.245,1.024,1.923,1.483c0.566,0.365,1.189,0.658,1.83,0.896c0.439,0.184,0.86,0.385,1.336,0.477
		c0.367,0.055,0.732,0.092,1.08,0.201c1.08,0.311,2.197,0.293,3.314,0.256c0.97-0.037,1.922-0.184,2.893-0.33
		c0.072-0.018,0.127-0.035,0.201-0.055c0.787-0.256,1.574-0.494,2.361-0.77c0.934-0.347,1.83-0.805,2.691-1.316
		c0.677-0.385,1.317-0.807,1.922-1.282c0.402-0.312,0.769-0.622,1.135-0.952c0.275-0.238,0.549-0.476,0.787-0.732
		c1.007-1.025,1.867-2.16,2.6-3.387c0.879-1.482,1.41-3.075,1.721-4.759c0.146-0.824,0.274-1.647,0.274-2.49
		c-0.018-0.677-0.146-1.336-0.256-1.996c-0.073-0.531-0.165-1.062-0.366-1.574c-0.366-0.988-0.806-1.94-1.318-2.856
		c-0.476-0.842-1.024-1.629-1.647-2.343c-0.457-0.512-0.934-1.007-1.464-1.446c-0.275-0.219-0.514-0.494-0.77-0.732
		c0.806,0.055,1.538,0.421,2.288,0.677c0.879,0.293,1.722,0.714,2.545,1.135c0.439,0.219,0.915,0.402,1.281,0.732
		c0.056,0.037,0.11,0.055,0.165,0.037c0.274,0.256,0.604,0.421,0.915,0.623c0.732,0.476,1.41,1.007,2.051,1.574
		c0.385,0.33,0.787,0.641,1.135,1.007c0.458,0.476,0.86,0.989,1.3,1.483c0.513,0.586,0.952,1.208,1.373,1.831
		c0.604,0.952,1.099,1.959,1.557,2.984c0.292,0.641,0.549,1.3,0.731,1.995c0.019,0.092,0.073,0.183,0.165,0.238
		c0,0,0,0.018,0.019,0.018c-0.348,0.183-0.732,0.238-1.099,0.275c-1.281,0.146-2.233,0.824-3.039,1.757
		c-1.52,1.738-2.489,3.771-3.313,5.877c-0.055,0.146-0.109,0.273-0.183,0.402c-0.494,0.549-1.08,0.971-1.611,1.465
		c-0.952,0.879-1.904,1.756-2.765,2.709c-0.53,0.586-1.062,1.152-1.592,1.738c-0.531,0.586-1.025,1.209-1.521,1.813
		c-0.072,0.074-0.127,0.184-0.237,0.221c-0.257,0.035-0.604,0.146-0.732-0.055c-0.128-0.238,0.22-0.404,0.385-0.568
		c0.438-0.439,0.842-0.896,1.171-1.428c0.092-0.129,0.201-0.238,0.367-0.275c0.128-0.035,0.256-0.072,0.384-0.146
		c0.184-0.127,0.184-0.273,0-0.402c-0.146-0.109-0.329-0.164-0.53-0.219c-0.422-0.111-0.843-0.221-1.264-0.33
		c-0.385-0.074-0.402-0.074-0.457,0.311c-0.146,0.934-0.439,1.832-0.788,2.711c-0.109,0.328-0.312,0.438-0.641,0.457
		c-0.476,0-0.934-0.092-1.392-0.074c-0.329,0-0.348,0.037-0.274,0.348c0.092,0.385,0.183,0.752,0.293,1.117
		c0.036,0.146,0.073,0.275,0.165,0.402c0.164,0.238,0.385,0.275,0.477,0c0.164-0.42,0.494-0.475,0.859-0.494
		c0.312-0.018,0.604-0.127,0.916-0.092c0.109,0.258-0.146,0.313-0.221,0.459c-0.348,0.018-0.348,0.293-0.384,0.531
		c-0.714,1.061-1.428,2.104-2.069,3.221c-0.146,0.275-0.273,0.531-0.402,0.807c-0.036,0.055-0.055,0.092-0.128,0.072
		c0-1.207,0-2.416-0.019-3.605c0-0.146,0.037-0.238,0.165-0.313c0.056-0.018,0.092-0.072,0.128-0.109
		c0.33-0.293,0.348-0.439,0.037-0.787c-0.256-0.275-0.586-0.512-0.916-0.713c-0.164-0.092-0.293-0.074-0.439,0.035
		c-0.164,0.129-0.311,0.275-0.457,0.402c-0.055,0.074-0.109,0.146-0.184,0.203c-0.128,0.09-0.293,0.072-0.42,0.018
		c-0.129-0.037-0.074-0.164-0.074-0.256c0-0.879,0-1.74,0-2.6c0-0.275,0-0.293,0.275-0.293c0.823,0,1.629,0,2.434,0
		c0.129,0,0.293,0.055,0.367-0.109c0.072-0.166-0.055-0.275-0.146-0.367c-0.422-0.402-0.879-0.713-1.355-1.006
		c-0.183-0.111-0.329-0.057-0.457,0.072c-0.256,0.221-0.494,0.457-0.695,0.732c-0.129,0.164-0.257,0.219-0.458,0.219
		c-1.538-0.018-3.075-0.018-4.613,0c-0.439,0-0.879-0.072-1.337-0.127c-0.036,0.238,0.074,0.439,0.146,0.641
		c0.037,0.109,0.165,0.072,0.238,0.055c0.659-0.109,1.3-0.109,1.959-0.109c0.274,0.018,0.274,0.018,0.274,0.293
		c0,0.859,0,1.721,0,2.6c0,0.273-0.019,0.293-0.312,0.293c-0.146,0-0.274-0.074-0.402-0.146c-0.494-0.275-0.988-0.531-1.501-0.715
		c-0.056,0.02-0.073,0.055-0.056,0.092c0.166,2.582,0.129,5.182,0.11,7.781c-0.348-0.258-0.586-0.623-0.86-0.934
		c-0.238-0.258-0.477-0.531-0.714-0.807c-0.421-0.494-0.879-0.971-1.318-1.465c-0.146-0.164-0.274-0.348-0.421-0.512
		c0.531-0.604,0.385-1.447,0-1.996c-0.366-0.512-0.86-0.859-1.391-1.172c-0.678-0.385-1.41-0.621-2.16-0.822
		c-0.349-0.238-0.55-0.605-0.824-0.879c-0.019-0.037-0.019-0.092,0-0.129c0.146,0,0.274-0.018,0.402-0.018c1.482,0,2.984,0,4.467,0
		c0.184,0,0.422,0.055,0.494-0.166c0.074-0.182-0.109-0.328-0.238-0.439c-0.402-0.385-0.842-0.75-1.317-1.061
		c-0.238-0.166-0.293-0.166-0.531,0.035c-0.329,0.313-0.622,0.623-0.897,0.953c-0.127,0.146-0.256,0.219-0.438,0.219
		c-0.622-0.018-1.245,0-1.849-0.018c-0.275,0-0.293-0.018-0.293-0.275c-0.019-0.348,0-0.676-0.019-1.025
		c0-0.164,0.055-0.236,0.22-0.293c0.128-0.035,0.274-0.109,0.365-0.219c0.202-0.184,0.166-0.348-0.072-0.477
		c-0.257-0.109-0.531-0.164-0.806-0.219c-0.495-0.074-0.97-0.166-1.465-0.184c-0.073,0-0.128,0.018-0.183,0.018
		c0,0.221,0,0.422,0,0.623c-0.477-0.494-0.934-1.025-1.337-1.557c-0.165-0.201-0.312-0.383-0.549-0.512
		c-0.092-0.402-0.274-0.787-0.421-1.189c-0.439-1.117-0.751-2.271-1.008-3.441c-0.055-0.257-0.109-0.495-0.183-0.752
		c-0.019-0.127-0.036-0.273-0.019-0.402c0.129-0.092,0.238-0.036,0.33,0.055c0.439,0.422,0.971,0.586,1.557,0.604
		c0.127,0.019,0.256,0.056,0.384,0.092C16.738,7.969,16.812,8.023,16.885,8.061z"/>
	<path fill="#BDBDBD" d="M34.148-7.354c0.585,0.33,1.189,0.641,1.775,0.952c0.092,0.055,0.219,0.091,0.274,0.219
		c0,0.037-0.036,0.073-0.056,0.11c-0.365,0.348-0.365,0.385,0,0.696c0.184,0.146,0.129,0.256-0.036,0.348
		c-0.22,0.11-0.421,0.202-0.641,0.312c-1.171,0.586-2.325,1.208-3.533,1.739c-0.11,0.055-0.22,0.109-0.348,0.109
		c-0.439-0.219-0.86-0.458-1.3-0.677c-0.293-0.165-0.274-0.366-0.019-0.567c0.073-0.055,0.202-0.073,0.183-0.183
		c0-0.11-0.127-0.128-0.219-0.165c-0.348-0.11-0.678,0-1.008,0.018c-0.146,0-0.292,0.055-0.384-0.11
		c-0.073-0.659-0.019-1.318-0.036-1.977c0.036-0.366,0.219-0.623,0.494-0.842c0.238-0.183,0.219-0.275-0.055-0.385
		c-0.221-0.11-0.439-0.073-0.641,0.037c-0.202,0.11-0.367,0.256-0.568,0.366c-0.311,0.165-0.622,0.293-0.934,0.439
		c-0.146,0.055-0.293,0.11-0.421,0.201c-0.329,0.22-0.641,0.22-0.988,0.037c-0.935-0.494-1.886-0.915-2.802-1.446
		c-0.127-0.055-0.293-0.091-0.273-0.293c0.293-0.256,0.641-0.439,0.97-0.604c0.458-0.22,0.915-0.439,1.354-0.677
		c0.201-0.092,0.385-0.092,0.586,0.019c0.457,0.238,0.934,0.439,1.391,0.695c0.531,0.293,1.1,0.385,1.686,0.22
		c0.311-0.091,0.641-0.11,0.97-0.073c0.439,0.037,0.878,0.092,1.3-0.037c0.146-0.037,0.238,0.019,0.348,0.092
		c0.916,0.439,1.83,0.897,2.746,1.354C34.038-7.409,34.093-7.372,34.148-7.354z"/>
	<path fill="#7B5D29" d="M23.292,0.024c-0.073-0.165-0.22-0.238-0.348-0.311c-0.495-0.33-0.659-0.787-0.55-1.373
		c0.037-0.238-0.018-0.33-0.219-0.458c-0.33-0.165-0.641-0.348-0.953-0.513c-0.604-0.312-0.805-0.806-0.731-1.446
		c0.019-0.238,0.036-0.476,0.055-0.714c0.019-0.293,0.128-0.494,0.421-0.623c0.22-0.11,0.439-0.22,0.678-0.293
		c0.641-0.256,0.824-0.695,0.787-1.19c0-0.073,0-0.165,0-0.238c0.477-0.165,0.952,0.11,1.025,0.586c0.018,0.146,0,0.274,0,0.403
		c0,0.292,0.146,0.512,0.402,0.622c0.293,0.146,0.586,0.293,0.896,0.439c0.257,0.11,0.313,0.073,0.349-0.201
		c0-0.092,0-0.165,0.019-0.238c0.055-0.256,0.238-0.366,0.476-0.274c0.22,0.091,0.439,0.183,0.604,0.348
		c0.183,0.366,0.109,0.75,0.036,1.117c-0.073,0.384-0.091,0.75,0.036,1.117c0,0.348-0.055,0.677-0.055,1.025
		c-0.055,0.238-0.238,0.384-0.402,0.531c-0.402,0.366-0.604,0.806-0.513,1.373c-0.237,0.421-0.659,0.604-1.208,0.513
		C23.822,0.189,23.566,0.061,23.292,0.024z"/>
	<path fill="#9E9E9E" d="M23.292,0.024c0.019-0.11,0.092-0.091,0.165-0.055c0.201,0.055,0.402,0.128,0.622,0.165
		c0.476,0.092,0.897-0.018,1.19-0.439c0.018-0.183,0.146-0.33,0.164-0.512c0.037-0.128,0.092-0.256,0.257-0.275
		c0.165-0.018,0.292,0.073,0.384,0.22s0.11,0.311,0.146,0.476c0.11,0.384,0.201,0.439,0.55,0.274c0.438-0.22,0.897-0.348,1.3-0.641
		c0.421-0.293,0.476-0.476,0.274-0.934c-0.056-0.165-0.146-0.311-0.165-0.476c-0.073-0.421-0.073-0.805,0.385-1.043
		c0.256-0.128,0.311-0.403,0.33-0.695c0-0.202-0.092-0.403,0.018-0.586c0.274-0.037,0.567-0.037,0.824-0.092
		c0.311-0.055,0.566,0.037,0.805,0.183c0.146,0.073,0.129,0.165,0,0.238c-0.092,0.055-0.183,0.091-0.274,0.146
		c-0.183,0.11-0.201,0.238-0.019,0.366c0.146,0.092,0.312,0.183,0.477,0.238c0.274,0.11,0.531,0.238,0.75,0.439
		c0.037,0.018,0.092,0.036,0.129,0.036c-0.201,0.421-0.659,0.604-1.117,0.421c-0.128-0.037-0.238-0.128-0.365-0.165
		c-0.293-0.128-0.495-0.055-0.55,0.274c-0.073,0.366-0.202,0.677-0.366,0.988c-0.165,0.293-0.184,0.604-0.037,0.916
		c0.092,0.183,0.165,0.384,0.201,0.604c0.056,0.293,0.056,0.586-0.237,0.787c-0.128,0.073-0.128,0.22-0.183,0.33
		c-0.146,0.092-0.146-0.037-0.184-0.11c-0.037-0.11-0.109-0.183-0.22-0.238c-0.237-0.146-0.366-0.092-0.421,0.201
		c-0.092,0.495,0.201,0.769,0.842,0.824c0.916-0.201,0.897-0.201,0.988,0.751c0.056,0.366,0.02,0.75,0.11,1.116
		c0.036,0.165-0.091,0.22-0.201,0.293c-0.202,0.092-0.403,0.202-0.622,0.275c-0.11,0.055-0.221,0.11-0.348,0.037
		c-0.349-0.183-0.715-0.366-1.063-0.549c0.019-0.22,0.128-0.421,0.109-0.659c-0.018-0.202-0.109-0.366-0.293-0.458
		c-0.146-0.073-0.293-0.128-0.439-0.037c-0.127,0.091-0.055,0.22-0.055,0.348c0,0.146,0.019,0.292-0.072,0.402
		c-0.403-0.11-0.77-0.293-1.08-0.549c-0.037-0.202,0-0.421-0.02-0.623c-0.018-0.183-0.072-0.33-0.219-0.421
		c-0.293-0.183-0.422-0.109-0.439,0.202c0,0.183-0.037,0.33-0.201,0.439c-0.129-0.037-0.275-0.092-0.403-0.128
		c-0.146-0.128-0.348-0.183-0.476-0.329c-0.055-0.073-0.073-0.146-0.055-0.22c0.055-0.586-0.184-0.989-0.715-1.227
		c-0.072-0.019-0.109-0.073-0.164-0.11C23.311,0.299,23.292,0.17,23.292,0.024z"/>
	<path fill="#9E9E9E" d="M26.148-5.45c-0.184-0.073-0.367-0.165-0.55-0.256c-0.237-0.11-0.384-0.037-0.403,0.238
		c0,0.128,0.02,0.238,0,0.348c-0.018,0.183-0.127,0.256-0.293,0.201c-0.127-0.037-0.237-0.11-0.348-0.165
		c-0.219-0.11-0.42-0.22-0.658-0.311c-0.385-0.146-0.531-0.385-0.531-0.806c0-0.037,0-0.055,0.019-0.091
		c0.055-0.568-0.293-0.806-0.788-0.842c-0.055,0-0.109,0-0.164,0c0-0.256-0.019-0.531-0.019-0.787c0-0.183,0.036-0.385,0.202-0.495
		c0.164,0.202,0.402,0.293,0.604,0.403c0.842,0.439,1.703,0.842,2.545,1.282c0.293,0.146,0.549,0.165,0.842-0.037
		c0.128-0.11,0.293-0.202,0.477-0.22c0.256,0.586-0.037,1.318-0.623,1.538C26.367-5.413,26.258-5.358,26.148-5.45z"/>
	<path fill="#A4A4A4" d="M16.684,8.006c-0.293-0.055-0.604-0.092-0.897-0.129c-0.384-0.055-0.714-0.237-1.007-0.494
		c-0.109-0.092-0.201-0.219-0.385-0.201c-0.256-1.482-0.072-3.789,0.312-4.521c0.146,0.366,0.11,0.806,0.312,1.153
		c0.366,1.409,0.971,2.728,1.702,3.973c0.056,0.073,0.073,0.146,0.128,0.201C16.793,8.043,16.738,8.043,16.684,8.006z"/>
	<path fill="#BDBDBD" d="M23.311,0.445c0.201,0.037,0.402,0.11,0.567,0.256c0.348,0.311,0.458,0.677,0.384,1.116
		c-0.018,0.055-0.018,0.128-0.018,0.184c-0.201-0.055-0.402-0.146-0.586-0.238c-0.22-0.092-0.348-0.274-0.366-0.513
		C23.292,0.976,23.273,0.702,23.311,0.445z"/>
	<path fill="#BF0101" d="M38.413,19.465c0.036-0.164,0.183-0.256,0.274-0.383c0.092-0.129,0.238-0.111,0.367-0.129
		c1.464-0.238,2.929-0.494,4.356-0.842c0.293-0.074,0.458,0.018,0.586,0.256c0.073,0.146,0.128,0.311,0.22,0.457
		c0.183,0.313,0.421,0.459,0.714,0.404c0.311-0.074,0.567-0.35,0.622-0.678c0.073-0.549-0.109-1.008-0.494-1.373
		c-0.806-0.715-1.775-1.135-2.801-1.41c-0.019-0.018-0.055,0-0.092,0.018c0,0.166,0.146,0.238,0.238,0.33
		c0.348,0.348,0.641,0.732,0.915,1.135c0.201,0.293,0.146,0.385-0.201,0.422c-0.513,0.055-1.025,0.092-1.538,0.055
		c-0.476-0.018-0.951,0.092-1.409,0.072c-0.146,0-0.312,0.037-0.403-0.109c0.439-0.586,0.897-1.172,1.373-1.701
		c1.19-1.318,2.362-2.656,3.662-3.863c0.842-0.787,1.702-1.557,2.581-2.289c0.109,0.055,0.128,0.146,0.146,0.238
		c0.164,0.715,0.348,1.41,0.622,2.088c0.019,0.055,0.019,0.109,0,0.164c0.037,0.477,0.238,0.879,0.421,1.299
		c0.385,0.879,0.806,1.74,1.227,2.6c0.055,0.111,0.11,0.221,0.165,0.33c-0.073,0.221-0.293,0.201-0.458,0.256
		c-0.549,0.184-1.098,0.293-1.647,0.477c0.184,0.092,0.366,0.055,0.55,0.037c0.219-0.037,0.457-0.109,0.677,0.055
		c-0.109,0.293-0.385,0.457-0.549,0.713c-0.037,0.057-0.073,0.092-0.128,0.146c-0.073,0.074-0.184,0.057-0.238,0.146
		c-0.165,0.33-0.477,0.551-0.751,0.807c-0.457,0.42-0.934,0.824-1.409,1.227c-0.184,0.146-0.366,0.33-0.623,0.439
		c0-0.184-0.018-0.348-0.036-0.494c-0.165-0.111-0.184,0.072-0.201,0.146c-0.129,0.293-0.238,0.566-0.385,0.842
		c-0.22,0.42-0.549,0.658-1.043,0.641c-0.202,0-0.385,0.018-0.586-0.018c-0.366-0.02-0.567-0.221-0.604-0.586
		c-0.036-0.293-0.019-0.586-0.019-0.879c0.019-0.184,0.129-0.293,0.275-0.404c0.109-0.072,0.237-0.164,0.201-0.328
		c-0.019-0.166-0.184-0.201-0.33-0.238c-0.402-0.092-0.823-0.129-1.227-0.164c-0.146-0.02-0.311-0.037-0.293,0.164
		c0.037,0.842-0.036,1.684,0.056,2.525c0.036,0.422,0.201,0.77,0.567,0.99c0.055,0.018,0.091,0.072,0.109,0.127
		c-0.109,0.184-0.311,0.201-0.457,0.293c-0.129,0.074-0.238,0.109-0.366,0.184c0-0.275-0.184-0.402-0.403-0.477
		c-0.512-0.164-1.025-0.311-1.537-0.477c-0.074-0.018-0.146-0.055-0.221-0.072c-0.091-0.037-0.127-0.109-0.109-0.221
		c0.092-0.328,0.348-0.566,0.477-0.877c0.091-0.203,0.201-0.404,0.256-0.605c0.073-0.256,0.201-0.457,0.457-0.549
		c0.11-0.055,0.257-0.146,0.221-0.311c-0.037-0.146-0.184-0.184-0.312-0.201c-0.366-0.092-0.732-0.166-1.08-0.238
		C38.651,19.611,38.486,19.611,38.413,19.465z"/>
	<path fill="#003D82" d="M52.692,23.785c-0.036,0.623-0.092,1.246-0.201,1.867c-0.019,0.129,0.019,0.166,0.146,0.166
		c0.201,0,0.402,0,0.604,0.018c0.129,0,0.202-0.072,0.275-0.164c0.201-0.221,0.384-0.439,0.586-0.641
		c0.311-0.313,0.421-0.313,0.769-0.074c0.312,0.221,0.604,0.459,0.879,0.732c0.036,0.055,0.091,0.092,0.128,0.146
		c0.092,0.109,0.201,0.201,0.128,0.367c-0.073,0.127-0.22,0.092-0.329,0.092c-0.989,0-1.959,0-2.947,0c-0.33,0-0.33,0-0.403,0.348
		c-0.055,0.201-0.092,0.42-0.165,0.621c-0.073,0.184,0,0.221,0.165,0.275c0.494,0.109,0.971,0.293,1.41,0.566
		c0.311,0.184,0.585,0.422,0.769,0.77c0.146,0.311,0.183,0.623,0.109,0.953c-0.109,0.438-0.604,0.73-1.043,0.584
		c-0.184-0.055-0.293-0.146-0.385-0.311c-0.109-0.201-0.165-0.439-0.256-0.658c-0.146-0.439-0.33-0.879-0.604-1.264
		c-0.092-0.129-0.165-0.238-0.312-0.33c-0.128,0.129-0.146,0.293-0.219,0.459c-0.513,1.281-1.373,2.287-2.49,3.111
		c-0.531,0.365-1.08,0.695-1.647,0.971c-0.073,0.035-0.146,0.072-0.22,0.092c-0.055,0.018-0.11-0.02-0.146-0.074
		c-0.019-0.037,0-0.092,0.019-0.127c0.055-0.037,0.109-0.092,0.146-0.129c1.739-1.465,2.782-3.332,3.258-5.529
		c0-0.055,0.019-0.109,0.037-0.164c0.019-0.092-0.037-0.129-0.109-0.146c-0.019,0-0.037-0.018-0.073-0.018
		c-0.916,0.035-1.831-0.057-2.746,0.109c-0.165,0.037-0.257,0-0.293-0.184c-0.037-0.146-0.11-0.311-0.128-0.494
		c1.043,0.184,2.087,0.072,3.111,0.092c0.348,0.018,0.366,0,0.385-0.33c0.055-0.512,0.073-1.025,0.128-1.557
		c0-0.146-0.055-0.201-0.201-0.201c-0.824,0.037-1.666-0.072-2.489,0.092c-0.129,0.037-0.22,0.02-0.257-0.127
		c-0.036-0.166-0.092-0.33-0.146-0.551c0.897,0.201,1.794,0.092,2.673,0.111c0.476,0.018,0.421,0.055,0.439-0.422
		c0.019-0.457-0.092-0.916-0.092-1.391c0.238-0.074,0.458,0.035,0.659,0.055c0.421,0.055,0.824,0.127,1.245,0.201
		c0.055,0.018,0.128,0.037,0.183,0.072c0.274,0.111,0.293,0.313,0.073,0.514c-0.018,0.037-0.073,0.055-0.109,0.072
		c-0.092,0.074-0.257,0.092-0.257,0.238c-0.018,0.184-0.018,0.385-0.018,0.568c0,0.072,0.055,0.092,0.128,0.092
		c0.164,0,0.329,0,0.494,0c0.073,0,0.128-0.057,0.165-0.111c0.201-0.273,0.476-0.512,0.695-0.768
		c0.109-0.201,0.293-0.184,0.439-0.092c0.476,0.238,0.86,0.586,1.153,1.006c0.201,0.275,0.073,0.459-0.257,0.459
		c-0.842,0-1.684,0-2.526,0C52.912,23.75,52.784,23.73,52.692,23.785z"/>
	<path fill="#4C4C4C" d="M52.692,23.785c0.073-0.109,0.201-0.055,0.312-0.055c0.787,0,1.574,0,2.361,0c0.073,0,0.146,0,0.238,0
		c0.22-0.035,0.274-0.127,0.164-0.348c-0.018-0.037-0.036-0.072-0.073-0.109c-0.292-0.33-0.604-0.623-0.97-0.861
		c-0.184-0.109-0.33-0.146-0.513-0.035c-0.22-0.258-0.439-0.514-0.678-0.752c0.073-0.348,0.366-0.512,0.55-0.75
		c0.494-0.566,0.934-1.189,1.3-1.83c0.146-0.238,0.274-0.457,0.586-0.494c0.109-0.02,0.201-0.074,0.22-0.201
		c0.018-0.129-0.073-0.201-0.165-0.258c-0.33-0.219-0.696-0.348-1.062-0.512c-0.11-0.055-0.238-0.074-0.275-0.219
		c0.623-0.459,1.264-0.936,1.886-1.393c0.146,2.893,0.055,5.785,0.073,8.66c0,0.146,0.037,0.293-0.055,0.439
		c0-0.037,0-0.057,0-0.074c0.073-0.385-0.146-0.604-0.439-0.859c-0.348-0.293-0.714-0.385-1.153-0.367
		C54.23,23.805,53.461,23.785,52.692,23.785z"/>
	<path fill="#003D82" d="M41.873,23.182c-0.494-0.184-0.714-0.549-0.769-1.063c-0.037-0.256-0.037-0.529-0.037-0.805
		c-0.018-0.623,0.037-1.264-0.055-1.885c-0.019-0.166,0.055-0.184,0.184-0.166c0.293,0.02,0.585,0.055,0.878,0.092
		c0.238,0.02,0.458,0.074,0.696,0.109c0.091,0.02,0.183,0.057,0.256,0.092c0.146,0.111,0.184,0.256,0.073,0.422
		c-0.092,0.109-0.201,0.184-0.329,0.238c-0.11,0.055-0.146,0.146-0.146,0.273c0,0.293,0,0.605,0,0.916
		c0.019,0.33,0.146,0.457,0.476,0.494c0.22,0.018,0.458,0.018,0.678,0.018c0.439-0.018,0.732-0.236,0.915-0.621
		c0.165-0.33,0.293-0.66,0.421-0.988c0.019-0.074,0.055-0.129,0.128-0.129c0.11,0,0.11,0.092,0.11,0.184
		c-0.073,0.273-0.037,0.566-0.019,0.859c0,0.184,0.128,0.293,0.274,0.385c0.604,0.348,0.604,0.988,0.019,1.355
		c-0.256,0.182-0.549,0.236-0.86,0.273C43.796,23.346,42.825,23.402,41.873,23.182z"/>
	<path fill="#003D82" d="M49.086,17.379c-0.366,0.018-0.732,0.037-1.099,0.055c-0.091,0-0.164,0-0.237,0s-0.129-0.037-0.129-0.129
		c0-0.055,0.037-0.09,0.092-0.109c0.22-0.055,0.421-0.092,0.623-0.146c0.549-0.146,1.116-0.273,1.629-0.494
		c0.165,0,0.293-0.072,0.421-0.129c1.044-0.348,2.032-0.805,2.966-1.354c0.256-0.146,0.513-0.293,0.732-0.494
		c0.109-0.109,0.201-0.129,0.348-0.037c0.458,0.311,0.915,0.623,1.318,0.988c0.128,0.109,0.293,0.238,0.22,0.422
		s-0.275,0.164-0.422,0.146c-0.329-0.02-0.622,0.072-0.915,0.184c-1.245,0.438-2.526,0.73-3.826,0.896
		c-0.146,0.018-0.293,0.055-0.439,0.072C49.946,17.287,49.507,17.305,49.086,17.379z"/>
	<path fill="#003D82" d="M54.688,17.361c0.403,0.182,0.824,0.383,1.245,0.566c0.128,0.055,0.238,0.129,0.33,0.238
		c0.109,0.164,0.073,0.311-0.092,0.402c-0.073,0.037-0.146,0.092-0.22,0.074c-0.238-0.02-0.33,0.146-0.421,0.328
		c-0.531,0.934-1.172,1.795-1.923,2.564c-0.036,0.018-0.055,0.055-0.055,0.09c-0.055,0.02-0.109,0.057-0.165,0.057
		c-0.201,0.055-0.256-0.02-0.201-0.238c0.019-0.037,0.019-0.055,0.037-0.092c0-0.402,0.201-0.732,0.311-1.1
		c0.202-0.695,0.385-1.391,0.513-2.123c0.019-0.146,0.073-0.311,0.165-0.439c0.036-0.127,0.055-0.273,0.092-0.42
		C54.45,17.232,54.56,17.324,54.688,17.361z"/>
	<path fill="#003D82" d="M55.457,31.695c-0.403,0-0.714-0.203-0.824-0.514c-0.146-0.42-0.055-0.787,0.274-1.063
		c0.146-0.109,0.312-0.201,0.458-0.273c0.586-0.33,0.897-0.842,1.007-1.482c0.036-0.201,0.073-0.404,0.073-0.605
		c0-0.072,0.019-0.146,0.092-0.164c0.091-0.018,0.128,0.074,0.164,0.146c0.11,0.311,0.165,0.623,0.202,0.951
		c0.055,0.551,0.073,1.117-0.056,1.666c-0.055,0.293-0.164,0.551-0.329,0.787C56.244,31.512,55.914,31.713,55.457,31.695z"/>
	<path fill="#003D82" d="M48.171,18.385c-0.019-0.201,0-0.219,0.238-0.146c0.365,0.221,0.731,0.422,1.08,0.697
		c0.292,0.219,0.567,0.475,0.769,0.787c0.201,0.365,0.274,0.75,0.165,1.135c-0.146,0.604-0.659,0.732-1.136,0.621
		c-0.22-0.072-0.329-0.273-0.402-0.494c-0.11-0.328-0.055-0.658-0.128-0.969C48.646,19.43,48.5,18.861,48.171,18.385z"/>
	<path fill="#003D82" d="M50.624,17.672c0.109-0.109,0.201-0.055,0.311,0c0.531,0.293,1.044,0.604,1.465,1.061
		c0.531,0.313,0.769,1.154,0.477,1.686c-0.037,0.092-0.092,0.184-0.202,0.201c-0.164,0.109-0.329,0.201-0.513,0.238
		c-0.348,0.072-0.622-0.092-0.75-0.402c-0.092-0.203-0.092-0.422-0.128-0.623C51.21,19.063,50.99,18.35,50.624,17.672z"/>
	<path fill="#4C4C4C" d="M52.674,20.619c0.439-0.604,0.257-1.209-0.128-1.703c-0.055-0.072-0.092-0.127-0.146-0.184
		c0.403-0.164,0.751-0.402,1.135-0.621c0.22-0.146,0.439-0.275,0.678-0.422c-0.092,0.715-0.256,1.41-0.458,2.088
		c-0.146,0.531-0.311,1.061-0.53,1.574C53.096,21.059,52.839,20.875,52.674,20.619z"/>
	<path fill="#003D82" d="M21.205,27.43c0-1.008,0-2.014,0.018-3.004c0-0.383-0.072-0.75-0.072-1.115
		c0-0.256,0.018-0.293,0.293-0.256c0.512,0.055,1.025,0.127,1.537,0.219c0.129,0.018,0.257,0.055,0.366,0.129
		c0.183,0.127,0.202,0.293,0.056,0.457c-0.037,0.037-0.074,0.092-0.129,0.109c-0.311,0.092-0.311,0.313-0.311,0.586
		c0,1.867,0,3.754,0,5.639c0,0.055,0,0.129,0,0.201c0.018,0.293,0.109,0.402,0.384,0.457c0.622,0.146,1.153-0.127,1.392-0.713
		c0.238-0.604,0.439-1.227,0.623-1.85c0.018-0.092,0-0.256,0.164-0.238c0.165,0.037,0.092,0.166,0.092,0.275
		c0,0.512-0.055,1.025-0.073,1.557c-0.019,0.201,0.036,0.348,0.22,0.475c0.476,0.348,0.531,1.063,0.146,1.52
		c-0.165,0.201-0.366,0.33-0.604,0.422c-0.751,0.238-1.501,0.311-2.288,0.219c-0.275-0.035-0.549-0.072-0.824-0.146
		c-0.421-0.146-0.714-0.439-0.86-0.879c-0.073-0.256-0.128-0.494-0.128-0.768C21.205,29.625,21.205,28.527,21.205,27.43
		L21.205,27.43z"/>
	<path fill="#003D82" d="M18.002,24.207c-0.02-0.311-0.037-0.623-0.056-0.916c-0.019-0.164,0.056-0.164,0.165-0.164
		c0.293,0.037,0.567,0.072,0.86,0.109c0.329,0.02,0.641,0.074,0.952,0.146c0.164,0.037,0.293,0.092,0.329,0.256
		c0.036,0.184-0.073,0.313-0.237,0.367c-0.257,0.092-0.293,0.275-0.293,0.531c0.018,1.336-0.037,2.672,0.018,4.008
		c0.055,1.008,0.037,2.014,0.055,3.021c0,0.568-0.273,0.842-0.842,0.859c-0.109,0-0.22,0-0.329,0
		c-0.403-0.018-0.642-0.256-0.659-0.658c0-0.402,0-0.805,0-1.209c0-0.859-0.037-1.701,0.018-2.563
		c0.074-0.988,0.037-1.977,0.056-2.965c0-0.238-0.019-0.459-0.056-0.695l0,0C18.002,24.299,18.002,24.262,18.002,24.207z"/>
	<path fill="#003D82" d="M14.853,26.697c0.036-0.568,0.092-1.117,0.092-1.686c0-0.586-0.019-1.189-0.128-1.793
		c0.201-0.074,0.385,0.018,0.567,0.037c0.476,0.035,0.97,0.09,1.428,0.182c0.183,0.037,0.384,0.074,0.421,0.293
		c0.037,0.221-0.128,0.33-0.293,0.404c-0.201,0.072-0.256,0.201-0.256,0.402c0.018,0.273,0,0.549,0,0.824
		c-0.11,1.408-0.275,2.801-0.897,4.1c-0.421,0.896-1.062,1.629-1.849,2.234c-0.678,0.529-1.446,0.896-2.233,1.227
		c-0.073,0.035-0.165,0.072-0.238-0.02c-0.073-0.109,0.019-0.184,0.092-0.219c0.22-0.166,0.402-0.367,0.604-0.531
		c1.336-1.154,2.178-2.563,2.508-4.303C14.742,27.465,14.798,27.082,14.853,26.697z"/>
	<path fill="#FEFEFE" d="M48.152,12.326c-0.329-0.568-0.458-1.209-0.622-1.83c-0.056-0.221-0.092-0.439-0.146-0.66
		c0.53-1.465,1.171-2.873,1.959-4.21c0.604-1.025,1.317-1.959,2.196-2.801c0.622-0.604,1.373-0.952,2.233-1.098
		c0.348-0.055,0.695-0.11,1.044-0.202c0.091-0.018,0.183-0.036,0.274-0.018c0.073,0.146,0.201,0.22,0.329,0.293
		c0.33,0.202,0.477,0.513,0.494,0.897c0.019,0.677-0.128,1.318-0.329,1.959C55.2,5.9,54.761,7.127,54.267,8.336
		c-0.622,1.52-1.739,2.563-3.276,3.148c-0.843,0.329-1.703,0.566-2.563,0.805C48.336,12.326,48.244,12.309,48.152,12.326z"/>
	<path fill="#4D4D01" d="M31.951,22.102c0,0.568,0,1.154,0,1.721c0,0.109,0,0.221,0,0.348c0.055,0.678,0.311,0.879,0.934,0.971
		c0.274,0.018,0.549,0,0.806,0c0.146,0,0.201,0.055,0.201,0.201c0,0.66,0,1.301,0,1.959c0,0.184-0.092,0.221-0.257,0.221
		c-0.641-0.02-1.299,0-1.939,0c-0.696,0-1.373,0-2.069,0c-0.237-0.02-0.237-0.02-0.237-0.258c-0.02-0.348,0-0.695,0-1.043
		c-0.02-0.146,0.036-0.219,0.146-0.311c0.273-0.238,0.476-0.549,0.658-0.861c0.513-0.805,0.77-1.684,0.879-2.617
		c0.092-0.732,0.146-1.447,0.146-2.18c0-0.09,0.019-0.182,0.019-0.273c0-0.201,0.109-0.238,0.274-0.238
		c0.494,0.018,0.439-0.018,0.439,0.439C31.951,20.82,31.951,21.461,31.951,22.102L31.951,22.102z"/>
	<path fill="#FFFFFF" d="M33.873,28.309c0,0.641,0.019,1.281,0.019,1.922c0,0.127-0.036,0.182-0.165,0.182
		c-0.055-0.018-0.109,0-0.164,0c-1.318,0-2.618,0-3.918,0c-0.256,0-0.256-0.018-0.256-0.273c-0.02-0.256,0-0.514,0-0.787
		c0-0.092-0.02-0.201,0.036-0.275c0.403-0.42,0.86-0.768,1.354-1.043c0.184-0.055,0.385-0.018,0.567,0
		c0.788,0.037,1.575,0.109,2.362,0.201C33.764,28.234,33.836,28.252,33.873,28.309z"/>
	<path fill="#BF0101" d="M38.834,22.432c-0.018,0.072,0.037,0.127,0.055,0.201c-0.183-0.018-0.164,0.129-0.201,0.238
		c-0.128,0.641-0.293,1.264-0.566,1.867c-0.77,0.184-1.575,0.293-2.381,0.273c-0.164,0-0.219-0.072-0.238-0.236
		c0-0.166,0.056-0.35-0.018-0.494c-0.019-0.057-0.019-0.111-0.019-0.166c0.019-0.018,0.036-0.037,0.056-0.055
		c0.091-0.037,0.164,0.055,0.237,0.018c1.044-0.328,2.069-0.713,2.837-1.537C38.651,22.469,38.725,22.395,38.834,22.432z"/>
	<path fill="#4C4D02" d="M33.892,21.863c0,0.623,0,1.227,0,1.85c0,0.275-0.019,0.275-0.293,0.275
		c-0.403-0.037-0.494-0.111-0.494-0.514c0-1.135,0-2.27,0-3.404c0-0.313,0.019-0.33,0.329-0.33c0.531,0,0.458-0.037,0.458,0.477
		C33.892,20.766,33.892,21.314,33.892,21.863z"/>
	<path fill="#4D4D02" d="M29.389,25.488c0-0.109,0-0.201,0-0.311c0-1.686,0-3.369,0-5.053c0-0.055-0.02-0.129,0-0.201
		c0-0.184,0.018-0.184,0.384-0.184c0.329,0,0.349,0,0.349,0.184c-0.02,0.549,0.018,1.098-0.037,1.646
		c-0.019,0.221-0.019,0.439-0.037,0.641c-0.018,1.063-0.164,2.088-0.531,3.076C29.498,25.361,29.498,25.434,29.389,25.488z"/>
	<path fill="#4C4D03" d="M31.219,17.709c0-0.422,0-0.861,0-1.301c0-0.273,0.019-0.293,0.274-0.311
		c0.495-0.02,0.495-0.02,0.495,0.475c0,0.807,0.018,1.594,0,2.398c0,0.293,0,0.313-0.293,0.293c-0.55,0-0.477,0.074-0.477-0.475
		C31.219,18.441,31.219,18.074,31.219,17.709z"/>
	<path fill="#520204" d="M30.779,28.033c-0.421,0.385-0.86,0.732-1.354,1.043c-0.11-0.328-0.019-0.658-0.036-0.971
		c0-0.055,0.036-0.109,0.091-0.109C29.919,27.996,30.358,27.924,30.779,28.033z"/>
	<path fill="#455012" d="M33.873,28.309c-0.714-0.057-1.446-0.057-2.16-0.203c-0.128-0.018-0.238-0.055-0.366-0.072
		c0.056-0.055,0.128-0.055,0.202-0.055c0.677,0,1.354,0,2.031,0C33.892,27.979,33.892,27.996,33.873,28.309z"/>
	<path fill="#4C4C4C" d="M60.345,19.465c0.604,0,1.189,0,1.794,0c0.238,0,0.238,0.02,0.256,0.258c0,0.494,0,0.988,0,1.482
		c0,0.273-0.018,0.273-0.292,0.273c-0.604,0.02-1.209,0-1.813,0c-0.567,0-1.117,0.02-1.685,0c-0.312,0-0.329-0.018-0.329-0.311
		c0-0.477,0-0.951,0-1.428c0-0.275,0-0.275,0.293-0.275C59.154,19.465,59.759,19.465,60.345,19.465z"/>
	<path fill="#4C4C4C" d="M60.345,18.99c-0.586,0-1.172,0-1.758,0c-0.274,0-0.311-0.02-0.311-0.313c0-0.42,0-0.842,0-1.281
		c0-0.256,0.036-0.293,0.311-0.293c1.172,0,2.344,0,3.516,0c0.274,0,0.274,0,0.292,0.275c0,0.439,0,0.896,0,1.336
		c-0.018,0.275-0.018,0.275-0.274,0.275C61.534,18.99,60.931,18.99,60.345,18.99z"/>
	<path fill="#A4A4A4" d="M10.478,29.113c-0.678,0-0.586,0.072-0.586-0.586c0-1.959,0-3.918,0-5.877c0-0.092,0-0.182,0-0.256
		c0-0.129,0.055-0.164,0.165-0.164c0.439,0,0.879,0,1.318,0c0.128,0,0.183,0.055,0.183,0.182c0,0.02,0,0.037,0,0.074
		c0,2.051-0.019,4.102-0.019,6.15c-0.146,0.275-0.458,0.275-0.695,0.402C10.715,29.076,10.605,29.076,10.478,29.113z"/>
	<path fill="#524F4F" d="M10.478,29.113c0.366-0.164,0.714-0.311,1.062-0.477c0.037,0.586,0,0.477-0.439,0.477
		C10.898,29.113,10.697,29.113,10.478,29.113z"/>
	<path fill="#540000" d="M42.185,25.506c0.019,0.111-0.037,0.203-0.092,0.293c-0.348,0.789-0.806,1.502-1.317,2.18
		c-0.129,0.184-0.166,0.184-0.312,0.037c-0.531-0.551-0.971-1.154-1.354-1.813c-0.055-0.092-0.037-0.166,0.036-0.275
		c0.312-0.457,0.312-0.457,0.86-0.457c0.604,0,1.227,0,1.849,0C41.965,25.471,42.074,25.451,42.185,25.506z"/>
	<path fill="#A4A4A4" d="M20.07,17.58c0.219,0.238,0.421,0.494,0.622,0.732c0.073,0.092,0.165,0.164,0.202,0.275
		c-0.037,0-0.092-0.02-0.129-0.02c-0.055,0.02-0.109,0.02-0.128,0.074c-0.036,0.072,0,0.109,0.055,0.146
		c0.146,0.127,0.293,0.256,0.439,0.383c0.146,0.146,0.312,0.258,0.421,0.439c-0.146,0.385-0.348,0.732-0.678,1.008
		c-1.354,0.092-2.709,0.072-4.063,0.072c-0.036-0.109,0.036-0.127,0.091-0.182c0.879-0.807,1.648-1.74,2.271-2.766
		c0.073-0.127,0.146-0.182,0.293-0.182C19.668,17.58,19.869,17.58,20.07,17.58z"/>
	<path fill="#4C4C4D" d="M20.875,20.619c0.238-0.33,0.403-0.715,0.678-1.008c0.275,0.258,0.477,0.551,0.678,0.898
		C21.772,20.656,21.314,20.602,20.875,20.619z"/>
	<path fill="#4C4C4C" d="M18.002,24.207c0.036,0.055,0.018,0.092-0.02,0.129C17.982,24.299,18.002,24.244,18.002,24.207z"/>
	<path fill="#50070E" d="M58.313,26.02c0.019-0.146,0.019-0.293,0.037-0.457c0.421,0.127,0.787,0.328,1.208,0.402
		c0,0.018-0.019,0.037-0.019,0.072c-0.402,0-0.806,0-1.208,0L58.313,26.02z"/>
	<path fill="#8C8C8C" d="M28.912,1.25c-0.018-0.201-0.018-0.384,0.22-0.494c0.128-0.037,0.183-0.183,0.183-0.33
		c0-0.33-0.092-0.623-0.237-0.897c-0.183-0.384-0.11-0.714,0.073-1.062c0.146-0.275,0.311-0.531,0.311-0.861
		c0-0.11,0.037-0.22,0.129-0.311c0.109-0.128,0.219-0.22,0.402-0.128c0.109,0.036,0.238,0.073,0.33,0.128
		c0.42,0.256,0.732,0.22,1.098-0.092c0.055-0.055,0.129-0.091,0.184-0.146c0.256-0.091,0.512-0.183,0.75-0.311
		c1.245-0.623,2.508-1.245,3.753-1.867c0.036-0.018,0.073-0.055,0.11-0.073c-0.037-0.128-0.146-0.128-0.221-0.183
		c-0.292-0.183-0.311-0.403-0.072-0.623c0.092-0.091,0.183-0.146,0.274-0.183c0.183,0.183,0.22,0.421,0.22,0.659
		c0,0.897,0.037,1.813-0.092,2.709c-0.092,0.091-0.22,0.128-0.33,0.165c-0.311,0.092-0.494,0-0.549-0.329
		c-0.036-0.146-0.018-0.312-0.201-0.366c-0.184-0.037-0.33,0.055-0.457,0.165c-0.165,0.146-0.238,0.33-0.221,0.549
		c0.02,0.33,0.129,0.403,0.458,0.293c0.329-0.128,0.513-0.019,0.567,0.33c0.074,0.384,0.074,0.384,0.458,0.33
		c0.091-0.019,0.183-0.055,0.274,0.018c0.092,0.623,0.073,1.227,0.019,1.849c-0.056,0.384-0.238,0.659-0.567,0.842
		c-0.402,0.238-0.842,0.385-1.264,0.531c-0.128-0.128-0.072-0.293-0.092-0.439c-0.018-0.128,0.037-0.312-0.183-0.33
		c-0.183-0.019-0.348,0.073-0.421,0.256c-0.055,0.22-0.092,0.439-0.092,0.659c-0.018,0.109-0.018,0.201-0.092,0.274
		c-0.293,0.256-0.658,0.366-0.97,0.604c-0.293,0.165-0.55,0.458-0.934,0.348c-0.11-0.165-0.11-0.366-0.146-0.549
		c-0.036-0.22-0.165-0.238-0.329-0.165c-0.201,0.11-0.293,0.275-0.293,0.495c-0.019,0.22,0.018,0.458-0.055,0.677
		c-0.238,0.238-0.514,0.403-0.861,0.421c-0.109-0.018-0.128-0.11-0.128-0.201c0.036-0.458-0.091-0.934-0.073-1.392
		c0.019-0.311-0.109-0.384-0.421-0.33c-0.165,0.037-0.348,0.055-0.513,0.092C28.766,1.745,28.748,1.489,28.912,1.25z"/>
	<path fill="#AB9C53" d="M31.75,2.935c0.164,0,0.311-0.11,0.457-0.165c0.146-0.073,0.293-0.183,0.458-0.183
		c0.019,1.263,0.019,2.526,0.019,3.771c0,0.074,0,0.146,0,0.202c0,0.714,0.201,0.97,0.896,1.116c0.019,0,0.037,0.02,0.055,0.02
		c-0.201,0.201-1.135,0.768-1.354,0.822c-0.313,0.074-0.623,0.037-0.916,0c-0.513-0.055-1.007-0.018-1.52,0.02
		c-0.421,0.036-0.421,0.036-0.806-0.293c0.238-0.165,0.458-0.312,0.732-0.477c-0.494-0.219-0.897-0.549-1.373-0.714
		c-0.329-0.128-0.659-0.128-0.952,0.056c-0.348,0.219-0.658,0.164-0.951-0.074c-0.074-0.055-0.165-0.072-0.201-0.164
		c0.055-0.184,0.219-0.238,0.365-0.312c0.256-0.146,0.256-0.202,0.019-0.366c-0.11-0.073-0.22-0.146-0.329-0.22
		c-0.037-0.019-0.037-0.055-0.092-0.128c0.513-0.184,0.915-0.568,1.428-0.715c0.348-0.109,0.659-0.055,0.971,0.129
		c0.183,0.109,0.238,0.092,0.256-0.129c0.019-0.256,0.019-0.512-0.018-0.768c0.219-0.055,0.42-0.146,0.621-0.238
		c0.11-0.055,0.202-0.128,0.33-0.109c0.146,0.146,0.092,0.329,0.109,0.512c0,0.293,0,0.604,0,0.896c0,0.275,0.11,0.477,0.348,0.605
		c0.349,0.164,0.678,0.328,1.008,0.494c0.274,0.127,0.329,0.109,0.329-0.201c0-0.934,0-1.868,0-2.802c0-0.128,0-0.238,0.019-0.366
		C31.658,3.063,31.676,2.99,31.75,2.935z"/>
	<path fill="#9E9E9E" d="M36.326-1.66c-0.164,0.037-0.311,0.073-0.476,0.11c-0.293,0.055-0.312,0.037-0.329-0.238
		c0-0.109,0.018-0.238-0.037-0.348c-0.073-0.183-0.184-0.238-0.366-0.165c-0.092,0.037-0.165,0.091-0.238,0.128
		c-0.183,0.055-0.237,0.037-0.329-0.128C34.295-2.85,34.624-3.344,35.1-3.436c0.22-0.055,0.366,0.019,0.402,0.238
		c0.02,0.073,0,0.165,0.02,0.256c0.036,0.22,0.183,0.312,0.384,0.238c0.146-0.055,0.274-0.128,0.421-0.11
		C36.345-2.429,36.363-2.044,36.326-1.66z"/>
	<path fill="#BDBDBD" d="M27.082,3.411c-0.056-0.201,0.036-0.402-0.037-0.622c-0.055-0.146,0.055-0.256,0.22-0.256
		c0.494-0.037,0.806,0.292,0.769,0.714c-0.018,0.201-0.018,0.421-0.201,0.567C27.539,3.74,27.283,3.63,27.082,3.411z"/>
	<path fill="#BDBCBC" d="M25.123,2.459c0.055-0.202,0.183-0.385,0.092-0.641c-0.056-0.128,0.091-0.238,0.237-0.201
		c0.55,0.092,0.659,0.33,0.622,0.732c-0.018,0.183,0.055,0.366-0.072,0.513C25.672,2.807,25.379,2.678,25.123,2.459z"/>
	<path fill="#9E9E9E" d="M33.635,2.001c-0.036-0.312,0.019-0.604,0.074-0.897c0.036-0.274,0.384-0.513,0.641-0.439
		c0.109,0.037,0.164,0.11,0.164,0.238c0,0.22,0,0.439,0,0.659c-0.201,0.183-0.402,0.311-0.658,0.366
		c-0.056,0.018-0.11,0.018-0.146,0.055C33.672,1.983,33.653,1.983,33.635,2.001z"/>
	<path fill="#8B7C65" d="M16.684,8.006c0.055,0,0.109-0.019,0.164-0.019c0.037,0.019,0.037,0.036,0.037,0.073
		C16.812,8.061,16.738,8.061,16.684,8.006z"/>
	<path fill="#8C8C8C" d="M33.709,1.983c0.036-0.055,0.072-0.073,0.146-0.055C33.8,1.983,33.764,1.983,33.709,1.983z"/>
	<path fill="#003D82" d="M39.768,17.689c0.403,0.037,0.787-0.018,1.19-0.018c0.714-0.037,1.428-0.02,2.142-0.092
		c0.092,0,0.184,0.018,0.274-0.037c-0.018-0.146-0.128-0.256-0.22-0.365c-0.274-0.422-0.622-0.807-0.97-1.154
		c-0.055-0.055-0.11-0.109-0.165-0.182c-0.036-0.037-0.036-0.092-0.019-0.146c0.037-0.057,0.092-0.074,0.146-0.074
		c0.056,0,0.092,0.018,0.129,0.037c0.787,0.238,1.556,0.531,2.251,0.988c0.312,0.201,0.623,0.457,0.843,0.77
		c0.256,0.348,0.348,0.713,0.274,1.135c-0.055,0.348-0.238,0.604-0.586,0.732c-0.329,0.127-0.659,0.018-0.842-0.293
		c-0.129-0.201-0.238-0.422-0.33-0.66c-0.073-0.164-0.164-0.219-0.366-0.164c-1.501,0.385-3.002,0.641-4.521,0.879
		c-0.11,0.018-0.201,0.018-0.312,0.037c-0.439,0.055-0.879,0.127-1.336,0.182c-0.165,0-0.238,0.074-0.274,0.221
		c-0.037,0.109-0.073,0.219-0.146,0.293c-0.202,0.201-0.385,0.201-0.55-0.02c-0.092-0.109-0.146-0.256-0.183-0.383
		c-0.128-0.514-0.257-1.008-0.384-1.502c-0.056-0.201-0.02-0.238,0.201-0.238c0.566,0,1.116,0.092,1.684,0.074
		c0.33,0,0.33,0,0.458-0.313c0.384-0.951,0.695-1.922,0.823-2.928c0.019-0.111,0.055-0.203,0.074-0.313
		c0.731,0.166,1.464,0.313,2.159,0.568c0.165,0.072,0.366,0.146,0.366,0.385c-0.018,0.201-0.22,0.293-0.384,0.328
		c-0.366,0.074-0.55,0.313-0.751,0.605c-0.33,0.512-0.77,0.951-1.208,1.373c-0.092,0.09-0.183,0.146-0.238,0.293
		C39.273,17.709,39.529,17.727,39.768,17.689z"/>
	<path fill="#003D82" d="M38.834,22.432c-0.732,0.842-1.702,1.299-2.746,1.629c-0.109,0.037-0.219,0.092-0.348,0.129
		c-0.238-0.129-0.128-0.275-0.018-0.404c0.128-0.146,0.293-0.256,0.439-0.383c0.988-0.807,1.61-1.832,1.775-3.113
		c0-0.109,0.018-0.201,0.092-0.293c0.018-0.184-0.019-0.385,0.072-0.549c0.11-0.037,0.201,0.037,0.312,0.018
		c0.439,0.092,0.897,0.184,1.337,0.275c0.128,0.018,0.256,0.055,0.385,0.109c0.256,0.109,0.273,0.313,0.055,0.494
		c-0.055,0.055-0.129,0.111-0.201,0.129c-0.221,0.055-0.293,0.219-0.367,0.42C39.438,21.443,39.146,21.955,38.834,22.432z"/>
	<path fill="#BE0101" d="M38.029,19.996c-0.019,1.008-0.385,1.887-1.025,2.674c-0.348,0.439-0.77,0.805-1.209,1.152
		c-0.183,0.166-0.183,0.166-0.055,0.367c-0.109,0.018-0.146-0.074-0.219-0.129c0.127-0.439,0.384-0.824,0.621-1.227
		c0.55-0.934,1.136-1.83,1.758-2.729C37.938,20.07,37.975,20.033,38.029,19.996z"/>
	<path fill="#8C8C8C" d="M26.148-5.45c0.604-0.073,0.988-0.623,0.934-1.208c0-0.11,0-0.22,0-0.33
		c0.311-0.165,0.622-0.311,0.951-0.421c0.109,0.128,0.073,0.275,0.092,0.421c0.037,0.22,0.146,0.311,0.366,0.293
		c0.146-0.019,0.293-0.073,0.421,0.037c0,0.732,0,1.446,0,2.16c0.073,0.256,0.073,0.513,0.055,0.769
		c-0.018,0.238-0.109,0.439-0.329,0.586c-0.421,0.256-0.513,0.513-0.366,1.007c0.037,0.183,0.128,0.33,0.201,0.494
		c0.165,0.403,0.109,0.623-0.238,0.879c-0.256,0.183-0.53,0.366-0.842,0.458c-0.256,0.092-0.477,0.22-0.714,0.33
		c-0.312,0.128-0.403,0.073-0.513-0.256c-0.037-0.146-0.073-0.292-0.092-0.421c-0.018-0.11-0.055-0.201-0.128-0.274
		s-0.165-0.128-0.274-0.11C25.544-1.001,25.544-0.91,25.525-0.8c0,0.202-0.146,0.348-0.256,0.494
		C25.086-0.8,25.287-1.184,25.599-1.55c0.165-0.201,0.384-0.366,0.55-0.586c0.127-0.11,0.311-0.091,0.476-0.165
		c0.329-0.128,0.494-0.531,0.329-0.86c-0.073-0.165-0.201-0.128-0.329-0.092c-0.146,0.055-0.274,0.165-0.421,0.037
		c-0.221-0.384-0.11-0.787-0.037-1.19C26.221-4.754,26.239-5.102,26.148-5.45z"/>
	<path fill="#9E9E9E" d="M28.912-6.658c-0.146,0-0.293,0.037-0.439,0.055c-0.274,0.073-0.421-0.055-0.439-0.33
		c-0.018-0.165,0-0.311,0-0.458c0.184-0.22,0.422-0.348,0.659-0.458c0.274-0.128,0.677-0.037,0.879,0.183
		c0.055,0.055,0.073,0.091,0.019,0.146c-0.055,0.055-0.11,0.128-0.184,0.183C29.132-7.17,28.967-6.951,28.912-6.658z"/>
	<path fill="#9E9E9E" d="M26.203-3.216c0.164,0.019,0.274-0.073,0.421-0.128c0.256-0.128,0.421-0.037,0.458,0.256
		c0.091,0.604-0.146,0.897-0.77,0.952c-0.055,0.019-0.109,0-0.164,0C26.093-2.502,26.166-2.85,26.203-3.216z"/>
	<path fill="#FEFEFE" d="M31.731,3.155c0,1.189,0,2.398,0,3.57c-0.128,0.072-0.183,0.018-0.257-0.019
		c-0.42-0.202-0.842-0.421-1.263-0.622c-0.257-0.11-0.348-0.293-0.348-0.55c0-0.513,0-1.024-0.019-1.519
		c0.037-0.11,0.146-0.128,0.201-0.202c0.275-0.146,0.549-0.293,0.806-0.421C31.109,3.191,31.384,3.026,31.731,3.155z"/>
	<path fill="#BCBCBC" d="M28.912,1.25c0,0.238,0,0.494,0,0.732c-0.184,0-0.33-0.073-0.494-0.128
		c-0.385-0.184-0.531-0.604-0.33-0.989c0.092-0.22,0.165-0.238,0.385-0.146C28.766,0.866,28.766,0.866,28.912,1.25z"/>
	<path fill="#9E9E9E" d="M32.756-0.379c-0.036,0.238-0.146,0.421-0.348,0.549c-0.329,0.22-0.677,0.348-1.024,0.513
		c-0.366,0.165-0.567,0.421-0.531,0.824c0.019,0.073,0.019,0.146,0,0.22c0,0.128-0.073,0.238-0.22,0.238
		c-0.128,0.019-0.238-0.055-0.274-0.183c-0.036-0.146-0.092-0.293-0.092-0.439c0-0.312-0.109-0.604-0.073-0.934
		c0-0.073,0-0.146-0.036-0.22c-0.056-0.128-0.019-0.238,0.019-0.366c0.072-0.183,0.146-0.256,0.329-0.165
		c0.384,0.165,0.696,0.019,1.007-0.183c0.238-0.146,0.531-0.22,0.77-0.366c0.183-0.128,0.328-0.037,0.384,0.165
		c0.036,0.091,0.055,0.165,0.073,0.256C32.738-0.434,32.738-0.397,32.756-0.379z"/>
	<path fill="#9E9E9E" d="M32.684-1.751c-0.037-0.385,0.201-0.623,0.586-0.769c0.109-0.037,0.219-0.019,0.219,0.146
		c0,0.128,0.056,0.238,0.074,0.366c0.055,0.274,0.183,0.348,0.439,0.256c0,0,0.018,0,0.036-0.019
		c0.366-0.146,0.513-0.073,0.53,0.311c0.02,0.513-0.237,0.842-0.732,0.879C33.69-0.562,33.58-0.617,33.563-0.8
		c-0.019-0.073-0.037-0.165-0.055-0.256c-0.056-0.238-0.11-0.293-0.367-0.256C32.72-1.276,32.684-1.294,32.684-1.751z"/>
	<path fill="#9E9E9E" d="M31.731,3.155c-0.312,0-0.586,0.183-0.879,0.238c0-0.238,0-0.476,0.019-0.714
		c0-0.329,0.22-0.567,0.531-0.622c0.164-0.019,0.256,0.037,0.256,0.183c0,0.238,0.109,0.458,0.092,0.696
		C31.731,3.008,31.731,3.082,31.731,3.155z"/>
	<path fill="#9E9E9E" d="M27.795-5.102c0.165,0,0.257,0.037,0.221,0.165c-0.056,0.293-0.092,0.604-0.201,0.879
		c-0.11,0.256-0.313,0.311-0.531,0.366c-0.129,0.019-0.184-0.073-0.201-0.183c0-0.22,0-0.421,0-0.641
		c0.018-0.091,0.055-0.183,0.109-0.238C27.375-4.937,27.594-5.029,27.795-5.102z"/>
</svg>
